<?xml version="1.0" encoding="UTF-8"?>
<svg id="_Шар_1" data-name="Шар 1" xmlns="http://www.w3.org/2000/svg" viewBox="0 0 2605.9 2000">
  <defs>
    <style>
      .cls-1 {
        fill: #09354e;
      }

      .cls-2 {
        fill: #13587d;
      }

      .cls-3 {
        fill: #0a659c;
      }

      .cls-4 {
        fill: #10435f;
      }

      .cls-5 {
        fill: #4496c8;
      }
    </style>
  </defs>
  <g>
    <path class="cls-3" d="M531.71,960.16c-45.68-38.91-91.39-77.77-137.14-116.59,20.1,49.73,40.2,99.46,60.3,149.2,22.65,19.25,45.3,38.5,67.95,57.75,25.93-10.54,51.85-21.07,77.78-31.61-21.81-18.61-47.07-40.14-68.9-58.74Z"/>
    <path class="cls-3" d="M636.5,930.33c18.63-56.94,37.12-113.92,55.46-170.96-37.01,37.78-74.02,75.56-111.03,113.35-10.03,30.91-20.07,61.82-30.1,92.74,19.23,16.66,38.47,33.33,57.7,49.99,9.36-28.36,18.68-56.73,27.96-85.11Z"/>
    <path class="cls-3" d="M425.96,1091.92c31.12-12.45,62.23-24.89,93.35-37.34-9.35,28.3-18.7,56.6-28.05,84.9-21.76-15.85-43.53-31.71-65.29-47.56Z"/>
    <path class="cls-3" d="M593.33,1069.74c5.24-16.11,10.48-32.22,15.72-48.32,10.31,.02,20.61,.03,30.92,.05h10.62c11.87,10.23,23.73,20.47,35.6,30.7-12.99-1.38-25.98-2.75-38.96-4.13-17.97,7.24-35.93,14.47-53.9,21.71Z"/>
    <g>
      <path class="cls-4" d="M529.26,1205.74c-17.35-2.2-40.66-6.93-66.53-17.6-25.88-10.67-45.74-23.75-59.6-34.42-15.01,13.57-30.03,27.14-45.04,40.72,16.82,14.18,42.65,32.79,77.7,47.4,35.16,14.67,66.66,19.92,88.61,21.88,1.62-19.33,3.25-38.65,4.87-57.98Z"/>
      <path class="cls-2" d="M307.97,984.6c-20.01,1.08-40.03,2.16-60.04,3.25,2.38,22.22,8.09,53.15,22.42,87.58,14.41,34.62,32.46,60.56,46.62,77.94,16.08-12.2,32.16-24.39,48.24-36.59-11.18-12.92-25.1-31.79-36.64-56.9-13.66-29.74-18.66-56.7-20.6-75.29Z"/>
      <path class="cls-3" d="M359.56,802.01c-14.46-14.42-28.91-28.85-43.37-43.27-14.25,17.54-32.45,43.82-46.86,78.93-14.02,34.17-19.58,64.84-21.88,86.99,20.26,.3,40.52,.59,60.78,.89,1.77-16.61,6.03-39.72,16.72-65.45,10.7-25.76,24.09-45.09,34.62-58.08Z"/>
      <path class="cls-5" d="M527.24,705.67c-1.25-20.13-2.49-40.26-3.74-60.39-21.84,2.31-52.46,7.92-86.55,22.23-34.11,14.32-59.56,32.25-76.52,46.22,14.23,14.49,28.46,28.98,42.68,43.47,13.69-10.7,33.55-23.94,59.6-34.62,25.06-10.28,47.65-14.82,64.52-16.92Z"/>
      <path class="cls-1" d="M869.72,927.03c-10.14-110.5-77.78-180.41-89.48-192.15-75.03-75.28-164.12-87.34-189.22-89.87-.09,20.3-.18,40.61-.27,60.91,13.14,2.24,29.23,5.91,47.07,12.15,22.67,7.92,38.95,16.76,44.84,20.07,13.75,7.73,38.97,22.2,63.76,49.82,4.57,5.09,15.43,17.67,26.4,35.97,3.54,5.9,17.58,29.93,27.18,65.81,3.55,13.26,12.37,47.34,9.31,88.66-6.33,85.53-59.2,142.5-67.94,151.65-59.89,62.7-132.87,73.18-152.73,75.37-.14,19.5-.27,38.99-.41,58.49,25.73-1.71,69.05-7.92,116.23-32.21,13.59-7,55.85-30.09,94.68-77.05,32.76-39.62,49.31-79.57,57.89-107.42,7.7-24.99,17.49-67.88,12.69-120.19Z"/>
    </g>
  </g>
  <g>
    <g>
      <path class="cls-1" d="M988.23,962.38v-170.49h35.35c25.5,0,44,2.05,55.52,6.14,16.53,5.8,29.46,15.84,38.77,30.13,9.31,14.3,13.97,31.33,13.97,51.11,0,17.08-3.69,32.1-11.07,45.09-7.38,12.98-16.96,22.56-28.74,28.74-11.78,6.18-28.3,9.27-49.55,9.27h-54.24Zm16.34-16.11h19.7c23.57,0,39.91-1.47,49.03-4.4,12.83-4.17,22.91-11.68,30.25-22.52,7.34-10.85,11.01-24.11,11.01-39.78,0-16.44-3.98-30.49-11.94-42.15-7.96-11.66-19.05-19.65-33.26-23.97-10.66-3.24-28.24-4.86-52.74-4.86h-12.05v137.69Z"/>
      <path class="cls-1" d="M1164.98,791.88h97.7v16.69h-80.67v53.43h79.97v16.69h-79.97v66.99h79.97v16.69h-97.01v-170.49Z"/>
      <path class="cls-1" d="M1555.47,791.88h17.04v71.51h86.81v-71.51h17.04v170.49h-17.04v-82.29h-86.81v82.29h-17.04v-170.49Z"/>
      <path class="cls-1" d="M1787.51,791.88l79.51,170.49h-18.4l-26.81-56.1h-73.45l-26.56,56.1h-19.01l80.55-170.49h4.17Zm-2.15,36.22l-29.21,61.71h58.29l-29.07-61.71Z"/>
      <path class="cls-1" d="M1883.82,791.88h17.5l34.83,122.86,48.87-122.86h3.54l48.31,122.86,35.42-122.86h17.37l-48.99,170.49h-3.17l-50.59-129-51.58,129h-3.18l-48.34-170.49Z"/>
      <path class="cls-1" d="M2121.3,791.88h17.39v63.98l68.15-63.98h22.89l-81.88,76.49,88.26,94h-22.69l-74.72-79.41v79.41h-17.39v-170.49Z"/>
      <path class="cls-1" d="M2243.93,930.62l14.49-8.69c10.2,18.78,21.98,28.16,35.35,28.16,5.72,0,11.09-1.33,16.11-4,5.02-2.67,8.85-6.24,11.47-10.72,2.63-4.48,3.94-9.23,3.94-14.26,0-5.72-1.93-11.32-5.8-16.81-5.33-7.57-15.07-16.69-29.21-27.35-14.22-10.74-23.06-18.5-26.54-23.3-6.03-8.04-9.04-16.73-9.04-26.08,0-7.42,1.78-14.18,5.33-20.28,3.55-6.1,8.56-10.91,15.01-14.43,6.45-3.52,13.46-5.27,21.04-5.27,8.04,0,15.55,1.99,22.54,5.97,6.99,3.98,14.39,11.3,22.2,21.96l-13.91,10.55c-6.41-8.5-11.88-14.1-16.4-16.81-4.52-2.7-9.45-4.06-14.78-4.06-6.88,0-12.5,2.09-16.86,6.26-4.37,4.17-6.55,9.31-6.55,15.41,0,3.71,.77,7.3,2.32,10.78,1.55,3.48,4.36,7.26,8.46,11.36,2.24,2.16,9.58,7.84,22.02,17.04,14.76,10.89,24.88,20.59,30.37,29.09,5.49,8.5,8.23,17.04,8.23,25.61,0,12.36-4.69,23.1-14.08,32.22-9.39,9.12-20.8,13.68-34.25,13.68-10.36,0-19.74-2.76-28.16-8.29-8.42-5.52-16.19-14.78-23.3-27.76Z"/>
      <path class="cls-1" d="M1287.19,791.46h18.45l56.22,131.06,57.14-131.06h18.45l-73.81,169.64h-3.69l-72.77-169.64Z"/>
    </g>
    <g>
      <path class="cls-1" d="M1002.73,1101.42l-14.49-72.72h6.46c5.64,29.08,10.73,55.6,11.62,64.27h.11c1.01-8.67,9.46-46.45,13.05-64.27h6.21c3.55,17.45,11.94,56.13,12.8,64.06h.21c1.51-11.86,9.3-46.51,12.69-64.06h6.19l-15.8,72.72h-6.88c-3.39-17.09-11.15-53.8-12.46-63.51h-.12c-1.51,10.8-9.23,46.28-12.89,63.51h-6.7Z"/>
      <path class="cls-1" d="M1066,1075.3c0,11.95,2.17,21.76,11.33,21.76s10.49-9.03,10.79-10.59h5.99c-.12,1.28-1.75,15.93-16.81,15.93s-17.37-14.46-17.37-27.77c0-17.01,5.59-27.88,17.85-27.88,13.59,0,16.76,11.63,16.76,24.84,0,.7-.02,2.23-.12,3.71h-28.41Zm22.48-5c0-10.77-2.48-18.23-10.79-18.23-10.86,0-11.38,14.61-11.56,18.23h22.35Z"/>
      <path class="cls-1" d="M1105.08,1025.24h6v30.2c1.65-4.39,5.47-8.7,13.16-8.7,10.02,0,15.71,8.2,15.71,26.45,0,16.47-4.55,29.09-17.15,29.09-6.82,0-10.22-3.44-11.89-7.62,0,1.98-.11,4.44-.3,6.75h-5.63c.11-2.59,.11-7.59,.11-14.64v-61.54Zm28.69,48.08c0-14.63-3.78-21.1-10.77-21.1-9.17,0-12.17,8.52-12.17,22.35,0,13.03,2.25,22.26,11.29,22.26,7.66,0,11.65-7.52,11.65-23.5Z"/>
      <path class="cls-1" d="M1177.71,1076.59l-5.9,24.82h-6.12s17.83-72.72,17.83-72.72h7.96l18.47,72.72h-6.58l-5.99-24.82h-19.66Zm18.28-5.55c-4.78-19.31-7.7-31.12-8.61-36.49h-.23c-1.03,6.2-4.25,20.07-8.15,36.49h16.99Z"/>
      <path class="cls-1" d="M1224.4,1095.4v25.92h-6v-57.93c0-7.39,0-12.42-.11-15.77h5.82c.12,.92,.25,4.84,.25,7.75,1.98-5.11,5.98-8.62,13.1-8.62,10.26,0,15.71,9.22,15.71,27.08s-6.64,28.57-17.24,28.57c-6.82,0-10.02-3.4-11.54-7Zm22.58-21.29c0-13.78-3.3-21.88-11.02-21.88-9.13,0-11.81,8.72-11.81,22.23s1.43,22.47,11.19,22.47c7.66,0,11.65-9.13,11.65-22.81Z"/>
      <path class="cls-1" d="M1269.94,1095.4v25.92h-6v-57.93c0-7.39,0-12.42-.11-15.77h5.82c.12,.92,.25,4.84,.25,7.75,1.98-5.11,5.98-8.62,13.1-8.62,10.26,0,15.71,9.22,15.71,27.08s-6.64,28.57-17.24,28.57c-6.82,0-10.02-3.4-11.54-7Zm22.58-21.29c0-13.78-3.3-21.88-11.02-21.88-9.13,0-11.81,8.72-11.81,22.23s1.43,22.47,11.19,22.47c7.66,0,11.65-9.13,11.65-22.81Z"/>
      <path class="cls-1" d="M1309.48,1101.42v-76.18h6v76.18h-6Z"/>
      <path class="cls-1" d="M1328.94,1047.62h6v53.8h-6v-53.8Zm.02-22.38h6v10.69h-6v-10.69Z"/>
      <path class="cls-1" d="M1379.4,1085.67c-.21,2.3-1.45,16.7-16.4,16.7-13.56,0-17.33-12.45-17.33-27.95s4.99-27.7,18.07-27.7c14.85,0,15.65,14.13,15.67,16.4h-6.19c-.11-2.23-1.02-11.07-9.49-11.07s-11.85,9.36-11.85,22.3c0,14.06,3.38,22.68,11.39,22.68,8.52,0,9.65-8.61,10.06-11.37h6.09Z"/>
      <path class="cls-1" d="M1419.03,1092.75c0,3.64,.3,7.25,.43,8.67h-5.52c-.3-1.25-.53-4.32-.53-6.53-1.96,4.75-6.21,7.5-12.94,7.5-10.33,0-13.96-8.01-13.96-15.4,0-9.41,6.31-17.04,20.59-17.04,2.79,0,4.36,0,6.07,.2v-7.66c0-4.61-.95-10.55-8.95-10.55-8.92,0-9.38,6.49-9.71,10.13h-5.88c.21-7.6,3.88-15.31,15.76-15.31,10.03,0,14.65,5,14.65,14.8v31.21Zm-5.73-17.53c-1.37-.21-2.98-.3-5.83-.3-10.5,0-14.92,5.08-14.92,11.67,0,5.6,3.01,10.49,9.2,10.49,8.45,0,11.55-5.87,11.55-18.47v-3.38Z"/>
      <path class="cls-1" d="M1425.56,1047.62h7.79v-14.67h5.91v14.67h9.78v5.32h-9.78v37.52c0,3.91,.89,6.43,5.03,6.43,1.28,0,3.09-.09,4.07-.3v4.77c-1.65,.62-4.12,.82-5.88,.82-5.46,0-9.13-2.34-9.13-10.36v-38.87h-7.79v-5.32Z"/>
      <path class="cls-1" d="M1457.1,1047.62h6v53.8h-6v-53.8Zm.02-22.38h6v10.69h-6v-10.69Z"/>
      <path class="cls-1" d="M1509.56,1073.82c0,18.7-6.07,28.58-17.81,28.58s-17.92-9.54-17.92-28.43,7.01-27.22,18.13-27.22,17.6,9.01,17.6,27.08Zm-29.53,.21c0,15.8,4.3,23.01,11.7,23.01s11.63-7.37,11.63-23.15c0-14.47-3.95-21.77-11.65-21.77-7.25,0-11.69,6.21-11.69,21.92Z"/>
      <path class="cls-1" d="M1520.17,1064.22c0-10.99-.09-14.24-.11-16.6h5.82c.12,1.3,.25,3.38,.25,7.61,1.87-4.66,5.73-8.5,13.07-8.5s13.86,4.01,13.86,16.37v38.32h-6.09v-37.26c0-7.03-2.56-11.93-9.09-11.93-8.23,0-11.62,5.57-11.62,17.68v31.51h-6.09v-37.2Z"/>
      <path class="cls-1" d="M1568.36,1086.21c.45,6.55,3.94,10.98,10.49,10.98s9.71-4.08,9.71-9.55c0-6.22-3.29-8.97-10.6-11.86-10.51-4.11-13.81-7.92-13.81-15.32s4.36-13.74,14.63-13.74c11.21,0,14.65,7.59,14.74,14.77h-5.99c-.18-2.81-.91-9.59-8.99-9.59-5.78,0-8.29,3.54-8.29,8.29s1.85,6.96,9.7,10.04c10,3.93,14.74,7.54,14.74,16.96s-5.96,15.18-16.21,15.18-15.81-6.33-16.17-16.16h6.04Z"/>
      <path class="cls-1" d="M1626.1,1101.42v-48.48h-7.3v-5.32h7.3v-8.24c0-7.54,2.42-14.71,11.86-14.71,1.31,0,3.11,.23,4.11,.55v5.53c-.96-.21-2.28-.5-3.78-.5-4.52,0-6.18,2.91-6.18,9.03v8.34h8.78v5.32h-8.78v48.48h-6Z"/>
      <path class="cls-1" d="M1679.95,1073.82c0,18.7-6.07,28.58-17.81,28.58s-17.92-9.54-17.92-28.43,7.01-27.22,18.13-27.22,17.6,9.01,17.6,27.08Zm-29.53,.21c0,15.8,4.3,23.01,11.7,23.01s11.63-7.37,11.63-23.15c0-14.47-3.95-21.77-11.65-21.77-7.25,0-11.69,6.21-11.69,21.92Z"/>
      <path class="cls-1" d="M1690.56,1065.98c0-8.48,0-14.5-.11-18.37h5.81c.11,1.57,.23,4.18,.23,9.88,2.39-6.65,7.74-10.57,14.27-10.66v6.54c-9.43,.49-14.2,7.53-14.2,17.3v30.73h-6v-35.43Z"/>
      <path class="cls-1" d="M1739.9,1028.7h17.75c10.24,0,16.83,6.34,16.83,17.42,0,9.97-4.81,14.1-9.13,15.6,5.65,1.87,11.61,7.09,11.61,18.43,0,12.82-7.49,21.28-19.97,21.28h-17.08v-72.72Zm15.17,30.79c9.51,0,13.3-4.41,13.3-12.81,0-7.62-4.01-12.7-12.08-12.7h-10.31v25.51h9.1Zm-9.1,36.68h10.5c9.31,0,14.27-5.85,14.27-15.9,0-10.54-5.63-15.53-15.84-15.53h-8.93v31.43Z"/>
      <path class="cls-1" d="M1818.81,1087.09c0,6.37,0,11.8,.11,14.33h-5.72c-.23-1.53-.34-3.56-.35-7.66-1.76,5.47-6.51,8.62-13.09,8.62-5.72,0-13.45-2.1-13.45-16.05v-38.71h6.09v37.23c0,7.47,2.22,12.13,9.01,12.13,6.39,0,11.31-4.06,11.31-16.85v-32.51h6.09v39.47Z"/>
      <path class="cls-1" d="M1833.99,1086.21c.45,6.55,3.94,10.98,10.49,10.98s9.71-4.08,9.71-9.55c0-6.22-3.29-8.97-10.6-11.86-10.51-4.11-13.81-7.92-13.81-15.32s4.36-13.74,14.63-13.74c11.21,0,14.65,7.59,14.74,14.77h-5.99c-.18-2.81-.91-9.59-8.99-9.59-5.78,0-8.29,3.54-8.29,8.29s1.85,6.96,9.7,10.04c10,3.93,14.74,7.54,14.74,16.96s-5.96,15.18-16.21,15.18-15.81-6.33-16.17-16.16h6.04Z"/>
      <path class="cls-1" d="M1870.04,1047.62h6v53.8h-6v-53.8Zm.02-22.38h6v10.69h-6v-10.69Z"/>
      <path class="cls-1" d="M1889.5,1064.22c0-10.99-.09-14.24-.11-16.6h5.82c.12,1.3,.25,3.38,.25,7.61,1.87-4.66,5.73-8.5,13.07-8.5s13.86,4.01,13.86,16.37v38.32h-6.09v-37.26c0-7.03-2.56-11.93-9.09-11.93-8.23,0-11.62,5.57-11.62,17.68v31.51h-6.09v-37.2Z"/>
      <path class="cls-1" d="M1939.13,1075.3c0,11.95,2.17,21.76,11.33,21.76s10.49-9.03,10.79-10.59h5.99c-.12,1.28-1.75,15.93-16.81,15.93s-17.37-14.46-17.37-27.77c0-17.01,5.59-27.88,17.85-27.88,13.59,0,16.76,11.63,16.76,24.84,0,.7-.02,2.23-.12,3.71h-28.41Zm22.48-5c0-10.77-2.48-18.23-10.79-18.23-10.86,0-11.38,14.61-11.56,18.23h22.35Z"/>
      <path class="cls-1" d="M1980.76,1086.21c.45,6.55,3.94,10.98,10.49,10.98s9.71-4.08,9.71-9.55c0-6.22-3.29-8.97-10.6-11.86-10.51-4.11-13.81-7.92-13.81-15.32s4.36-13.74,14.63-13.74c11.21,0,14.65,7.59,14.74,14.77h-5.99c-.18-2.81-.91-9.59-8.99-9.59-5.78,0-8.29,3.54-8.29,8.29s1.85,6.96,9.7,10.04c10,3.93,14.74,7.54,14.74,16.96s-5.96,15.18-16.21,15.18-15.81-6.33-16.17-16.16h6.04Z"/>
      <path class="cls-1" d="M2019.78,1086.21c.45,6.55,3.94,10.98,10.49,10.98s9.71-4.08,9.71-9.55c0-6.22-3.29-8.97-10.6-11.86-10.51-4.11-13.81-7.92-13.81-15.32s4.36-13.74,14.63-13.74c11.21,0,14.65,7.59,14.74,14.77h-5.99c-.18-2.81-.91-9.59-8.99-9.59-5.78,0-8.29,3.54-8.29,8.29s1.85,6.96,9.7,10.04c10,3.93,14.74,7.54,14.74,16.96s-5.96,15.18-16.21,15.18-15.81-6.33-16.17-16.16h6.04Z"/>
      <path class="cls-1" d="M2106.48,1092.75c0,3.64,.3,7.25,.43,8.67h-5.52c-.3-1.25-.53-4.32-.53-6.53-1.96,4.75-6.21,7.5-12.94,7.5-10.33,0-13.96-8.01-13.96-15.4,0-9.41,6.31-17.04,20.59-17.04,2.79,0,4.36,0,6.07,.2v-7.66c0-4.61-.95-10.55-8.95-10.55-8.92,0-9.38,6.49-9.71,10.13h-5.88c.21-7.6,3.88-15.31,15.76-15.31,10.03,0,14.65,5,14.65,14.8v31.21Zm-5.73-17.53c-1.37-.21-2.98-.3-5.83-.3-10.5,0-14.92,5.08-14.92,11.67,0,5.6,3.01,10.49,9.2,10.49,8.45,0,11.55-5.87,11.55-18.47v-3.38Z"/>
      <path class="cls-1" d="M2119.97,1064.22c0-10.99-.09-14.24-.11-16.6h5.82c.12,1.3,.25,3.38,.25,7.61,1.87-4.66,5.73-8.5,13.07-8.5s13.86,4.01,13.86,16.37v38.32h-6.09v-37.26c0-7.03-2.56-11.93-9.09-11.93-8.23,0-11.62,5.57-11.62,17.68v31.51h-6.09v-37.2Z"/>
      <path class="cls-1" d="M2198.38,1025.24v62.79c0,4.78,0,10.17,.11,13.38h-5.82c-.12-1.39-.25-5.23-.25-7.8-1.69,5-5.19,8.77-12.91,8.77-11.13,0-16-9.26-16-28.47,0-17.43,6.69-27.16,17.52-27.16,7.39,0,10.1,3.29,11.35,6.13v-27.63h6Zm-28.66,48.7c0,16.68,4.01,22.88,11.11,22.88,9.07,0,11.61-7.94,11.61-23.13,0-16.93-2.63-21.47-10.99-21.47-6.89,0-11.74,6.31-11.74,21.72Z"/>
      <path class="cls-1" d="M2233.24,1028.7h6.12v67.21h26.37l-1.1,5.51h-31.39v-72.72Z"/>
      <path class="cls-1" d="M2273.9,1047.62h6v53.8h-6v-53.8Zm.02-22.38h6v10.69h-6v-10.69Z"/>
      <path class="cls-1" d="M2294.74,1101.42v-48.48h-7.3v-5.32h7.3v-8.24c0-7.54,2.42-14.71,11.86-14.71,1.31,0,3.11,.23,4.11,.55v5.53c-.96-.21-2.28-.5-3.79-.5-4.51,0-6.18,2.91-6.18,9.03v8.34h8.78v5.32h-8.78v48.48h-6Z"/>
      <path class="cls-1" d="M2318.93,1075.3c0,11.95,2.17,21.76,11.33,21.76s10.49-9.03,10.79-10.59h5.99c-.12,1.28-1.75,15.93-16.81,15.93s-17.37-14.46-17.37-27.77c0-17.01,5.59-27.88,17.85-27.88,13.59,0,16.76,11.63,16.76,24.84,0,.7-.02,2.23-.12,3.71h-28.41Zm22.48-5c0-10.77-2.48-18.23-10.79-18.23-10.86,0-11.38,14.61-11.56,18.23h22.35Z"/>
    </g>
  </g>
</svg>