<svg aria-hidden="true" style="position: absolute; width: 0; height: 0; overflow: hidden;" version="1.1" xmlns="http://www.w3.org/2000/svg" xmlns:xlink="http://www.w3.org/1999/xlink">
<defs>
<symbol id="icon-bestPerfomens" viewBox="0 0 29 32">
<path d="M3.256 0.096c-0.84 0.176-1.712 0.688-2.248 1.304-0.328 0.376-0.704 1.056-0.856 1.544l-0.152 0.488v25.12l0.152 0.488c0.152 0.488 0.528 1.168 0.856 1.544 0.312 0.36 0.928 0.824 1.368 1.016 0.896 0.4 0.752 0.4 8.496 0.4 3.912 0 7.112-0.032 7.112-0.056 0-0.040-0.080-0.248-0.168-0.48l-0.168-0.408h-0.896c-0.84 0-0.912-0.016-1.312-0.2-0.224-0.112-0.576-0.368-0.768-0.568-0.672-0.68-1.416-1.944-1.8-3.040-0.168-0.464-0.192-0.616-0.16-1.072 0.032-0.608 0.216-1.024 0.696-1.664l0.264-0.368-0.336-0.448c-0.488-0.632-0.608-0.992-0.608-1.752 0.008-0.568 0.040-0.688 0.264-1.256 0.328-0.776 0.896-1.736 1.4-2.344 0.792-0.96 1.552-1.248 2.832-1.072l0.392 0.048 0.224-0.536c0.288-0.656 0.776-1.2 1.28-1.456 0.52-0.248 1.376-0.384 2.448-0.384 2.136 0 2.992 0.408 3.624 1.72 0.328 0.664 0.368 0.696 0.712 0.608l0.152-0.040v-4.096c0-2.728-0.032-4.216-0.080-4.464-0.176-0.816-0.264-0.928-4.048-4.696-3.712-3.696-3.768-3.744-4.52-3.92-0.184-0.040-2.816-0.056-7.008-0.056-5.376 0-6.8 0.016-7.144 0.096zM20.488 5.744l3.512 3.536-0.488 0.016c-0.264 0.016-1.64 0.016-3.056 0-2.512-0.016-2.584-0.024-2.872-0.168-0.368-0.208-0.68-0.584-0.776-0.968-0.048-0.192-0.080-1.336-0.080-3.192 0-2.736 0.008-2.888 0.128-2.832 0.064 0.040 1.696 1.656 3.632 3.608zM12.768 7.616c0.72 0.416 0.744 1.408 0.048 1.832-0.216 0.136-0.36 0.144-3.864 0.144-2.992 0-3.672-0.024-3.824-0.096-0.456-0.24-0.696-0.744-0.584-1.208 0.096-0.328 0.448-0.68 0.776-0.776 0.152-0.040 1.568-0.064 3.72-0.056 3.376 0.016 3.488 0.016 3.728 0.16zM16.176 12.728c0.824 0.192 1.16 1.2 0.576 1.744-0.416 0.384-0.144 0.376-5.656 0.392-2.816 0.016-5.28 0-5.48-0.016-0.656-0.080-1.088-0.512-1.088-1.080 0-0.504 0.344-0.92 0.864-1.048 0.368-0.080 10.408-0.072 10.784 0.008zM11.384 18.096c0.648 0.488 0.608 1.304-0.080 1.776l-0.24 0.16-2.936-0.016c-2.864-0.024-2.944-0.032-3.136-0.168-0.672-0.504-0.6-1.472 0.136-1.832 0.288-0.144 0.368-0.144 3.152-0.128l2.864 0.016 0.24 0.192zM11.304 23.24c0.384 0.264 0.52 0.512 0.52 0.912 0 0.456-0.208 0.776-0.616 0.96-0.264 0.12-0.504 0.136-3.032 0.136-2.624 0-2.76-0.008-3.040-0.144-0.64-0.312-0.808-1.064-0.36-1.632 0.296-0.368 0.344-0.376 3.44-0.384 2.848 0 2.856 0 3.088 0.152z"></path>
<path d="M20.28 16.432c-0.784 0.152-0.888 0.264-1.32 1.32-0.28 0.672-0.32 0.728-0.6 0.88-0.304 0.16-0.32 0.16-1.096 0.072-1.040-0.12-1.24-0.072-1.64 0.352-0.656 0.688-1.528 2.352-1.536 2.904 0 0.344 0.152 0.656 0.656 1.296 0.408 0.52 0.456 0.624 0.456 0.896 0 0.28-0.048 0.376-0.488 0.952-0.544 0.696-0.624 0.864-0.624 1.24 0 0.52 0.816 2.12 1.448 2.808 0.504 0.552 0.672 0.6 1.712 0.456l0.816-0.104 0.304 0.184c0.272 0.16 0.328 0.248 0.56 0.816 0.36 0.88 0.496 1.072 0.832 1.224 0.608 0.272 2.256 0.328 3.248 0.12 0.528-0.12 0.76-0.384 1.128-1.24 0.28-0.68 0.328-0.752 0.616-0.92l0.312-0.184 0.728 0.104c0.84 0.12 1.152 0.088 1.448-0.12 0.528-0.376 1.528-2.024 1.736-2.856 0.12-0.472 0.008-0.768-0.56-1.504-0.44-0.584-0.48-0.664-0.48-0.968 0-0.296 0.040-0.384 0.512-1.008 0.616-0.824 0.672-1.024 0.456-1.664-0.368-1.096-1.28-2.472-1.816-2.752-0.232-0.12-0.584-0.128-1.392-0.016-0.608 0.080-0.64 0.080-0.936-0.080-0.288-0.16-0.328-0.224-0.608-0.904-0.328-0.824-0.584-1.128-1.024-1.248-0.448-0.128-2.296-0.16-2.848-0.056zM22.088 22.432c0.464 0.144 1.040 0.696 1.168 1.12 0.44 1.48-0.824 2.744-2.288 2.312-0.464-0.136-0.992-0.696-1.144-1.208-0.328-1.136 0.512-2.272 1.712-2.328 0.096 0 0.344 0.048 0.552 0.104z"></path>
</symbol>
<symbol id="icon-checkOne" viewBox="0 0 32 32">
<path fill="#0c4a6e" style="fill: 0c4a6e" d="M15.205 0.060c-0.659 0.18-1.102 0.479-2.48 1.689-1.522 1.33-1.653 1.426-2.348 1.665-0.443 0.156-0.671 0.18-2.504 0.216-2.001 0.048-2.037 0.048-2.456 0.24-0.851 0.407-1.582 1.318-1.773 2.217-0.048 0.228-0.084 1.15-0.084 2.097 0 2.42 0.012 2.396-1.893 4.625-0.647 0.755-1.186 1.462-1.318 1.725-0.467 0.923-0.467 2.001 0 2.912 0.132 0.264 0.671 0.971 1.318 1.725 1.318 1.546 1.498 1.797 1.713 2.432 0.168 0.467 0.18 0.599 0.18 2.193 0 0.971 0.036 1.869 0.084 2.097 0.192 0.911 0.863 1.761 1.713 2.181l0.491 0.24 2.061 0.048c2.828 0.048 2.564-0.060 5.008 2.037 0.791 0.671 1.462 1.186 1.701 1.294 0.887 0.407 1.965 0.395 2.816-0.012 0.228-0.108 1.018-0.719 1.881-1.462 1.438-1.234 1.857-1.522 2.48-1.725 0.192-0.060 1.054-0.108 2.324-0.132 2.025-0.048 2.025-0.048 2.444-0.264 0.563-0.276 1.174-0.839 1.438-1.318 0.335-0.623 0.419-1.21 0.419-3.007 0-1.677 0.060-2.061 0.383-2.684 0.072-0.144 0.707-0.935 1.414-1.761 0.695-0.827 1.366-1.677 1.474-1.893 0.407-0.827 0.407-2.013 0-2.864-0.12-0.252-0.719-1.006-1.474-1.893-1.234-1.438-1.522-1.869-1.713-2.492-0.060-0.18-0.12-1.078-0.144-2.312l-0.048-2.025-0.228-0.455c-0.276-0.575-0.923-1.222-1.498-1.498l-0.443-0.216-2.025-0.048c-1.27-0.036-2.133-0.084-2.324-0.144-0.611-0.192-1.042-0.479-2.3-1.558-1.761-1.51-1.845-1.57-2.3-1.749-0.515-0.192-1.474-0.24-1.989-0.12zM22.226 11.083c0.323 0.132 0.647 0.503 0.707 0.839 0.096 0.575 0.072 0.623-4.218 4.913-3.499 3.475-4.074 4.026-4.349 4.11-0.611 0.18-0.671 0.12-3.031-2.229-1.785-1.797-2.157-2.217-2.229-2.456-0.156-0.599 0.216-1.222 0.839-1.402 0.563-0.144 0.755 0 2.492 1.737 0.863 0.863 1.606 1.57 1.642 1.57 0.048 0 1.642-1.57 3.559-3.487s3.595-3.535 3.714-3.595c0.288-0.132 0.575-0.132 0.875 0z"></path>
<path fill="#fff" style="fill: var(--color2, #fff)" d="M15.205 0.060c-0.659 0.18-1.102 0.479-2.48 1.689-1.522 1.33-1.653 1.426-2.348 1.665-0.443 0.156-0.671 0.18-2.504 0.216-2.001 0.048-2.037 0.048-2.456 0.24-0.851 0.407-1.582 1.318-1.773 2.217-0.048 0.228-0.084 1.15-0.084 2.097 0 1.114 0 1.713-0.18 2.241-0.216 0.635-0.683 1.174-1.713 2.384-0.647 0.755-1.186 1.462-1.318 1.725-0.467 0.923-0.467 2.001 0 2.912 0.132 0.264 0.671 0.971 1.318 1.725 1.318 1.546 1.498 1.797 1.713 2.432 0.168 0.467 0.18 0.599 0.18 2.193 0 0.971 0.036 1.869 0.084 2.097 0.192 0.911 0.863 1.761 1.713 2.181l0.491 0.24 2.061 0.048c1.342 0.024 1.989 0.012 2.552 0.216 0.635 0.228 1.174 0.719 2.456 1.821 0.791 0.671 1.462 1.186 1.701 1.294 0.887 0.407 1.965 0.395 2.816-0.012 0.228-0.108 1.018-0.719 1.881-1.462 1.438-1.234 1.857-1.522 2.48-1.725 0.192-0.060 1.054-0.108 2.324-0.132 2.025-0.048 2.025-0.048 2.444-0.264 0.563-0.276 1.174-0.839 1.438-1.318 0.335-0.623 0.419-1.21 0.419-3.007 0-1.677 0.060-2.061 0.383-2.684 0.072-0.144 0.707-0.935 1.414-1.761 0.695-0.827 1.366-1.677 1.474-1.893 0.407-0.827 0.407-2.013 0-2.864-0.12-0.252-0.719-1.006-1.474-1.893-1.234-1.438-1.522-1.869-1.713-2.492-0.060-0.18-0.12-1.078-0.144-2.312l-0.048-2.025-0.228-0.455c-0.276-0.575-0.923-1.222-1.498-1.498l-0.443-0.216-2.025-0.048c-1.27-0.036-2.133-0.084-2.324-0.144-0.611-0.192-1.042-0.479-2.3-1.558-1.761-1.51-1.845-1.57-2.3-1.749-0.515-0.192-1.474-0.24-1.989-0.12zM25.965 4.385l-1.857-0.036q-2.133-0.048-2.528-0.18-0.899-0.276-2.552-1.701-1.725-1.474-2.085-1.618-0.395-0.144-0.803-0.168-0.371-0.012-0.755 0.084-0.647 0.168-2.193 1.522v0q-1.725 1.51-2.576 1.809-0.575 0.204-2.732 0.252h-0.024q-1.857 0.036-2.145 0.18-0.599 0.276-0.947 0.755-0.312 0.407-0.419 0.959-0.072 0.335-0.072 1.941v0.060q0 0.359-0.036 0.719-0.252 2.241-2.025 4.301l-0.012 0.012q-1.018 1.186-1.222 1.582-0.288 0.575-0.288 1.138t0.288 1.126q0.18 0.359 1.222 1.582 1.558 1.809 1.857 2.66 0.216 0.623 0.216 2.432 0 1.618 0.072 1.953 0.12 0.563 0.431 0.971 0.335 0.431 0.887 0.707l0.347 0.168 1.905 0.048q0.132 0 0.371 0 0.671 0.012 1.318 0.156 1.833 0.383 3.439 1.773 0.216 0.18 0.335 0.288 1.234 1.042 1.534 1.186 0.575 0.264 1.15 0.252 0.527-0.012 1.066-0.264 0.3-0.144 1.713-1.354 1.845-1.594 2.732-1.869 0.395-0.12 2.528-0.168 1.857-0.048 2.145-0.192 0.779-0.383 1.102-0.994 0.012-0.012 0.012-0.012 0.335-0.611 0.335-2.672 0-2.133 0.455-3.019 0.18-0.347 1.51-1.893 1.234-1.45 1.378-1.737 0.264-0.539 0.276-1.078 0.012-0.575-0.276-1.162-0.168-0.335-1.366-1.737-1.582-1.845-1.869-2.744-0.12-0.383-0.168-2.516l-0.048-1.857-0.144-0.312q-0.204-0.419-0.527-0.719-0.276-0.276-0.647-0.455l-0.312-0.156zM23.305 11.011q0.252 0.335 0.335 0.779v0q0.168 0.971-4.421 5.548-4.146 4.146-4.637 4.289-1.042 0.312-3.75-2.408-2.277-2.289-2.408-2.78-0.24-0.875 0.084-1.438 0.323-0.575 1.246-0.839 1.006-0.264 3.187 1.917 0.659 0.659 1.126 1.102v0.024q0.24-0.24 0.587-0.575 0.971-0.959 2.48-2.468 3.559-3.559 3.894-3.726l0.012-0.012h0.024q0.323-0.144 0.647-0.156 0.395-0.024 0.791 0.144 0.515 0.216 0.803 0.599zM22.226 11.083c0.323 0.132 0.647 0.503 0.707 0.839 0.096 0.575 0.072 0.623-4.218 4.913-3.499 3.475-4.074 4.026-4.349 4.11-0.611 0.18-0.671 0.12-3.031-2.229-1.785-1.797-2.157-2.217-2.229-2.456-0.156-0.599 0.216-1.222 0.839-1.402 0.563-0.144 0.755 0 2.492 1.737 0.863 0.863 1.606 1.57 1.642 1.57 0.048 0 1.642-1.57 3.559-3.487s3.595-3.535 3.714-3.595c0.288-0.132 0.575-0.132 0.875 0z"></path>
</symbol>
<symbol id="icon-clock" viewBox="0 0 29 32">
<path d="M13.751 0.019c-3.633 0.233-7.127 1.835-9.596 4.407-2.245 2.357-3.559 5.031-4.025 8.245-0.13 0.838-0.13 3.149 0 4.006 0.401 2.786 1.63 5.515 3.391 7.527 0.261 0.298 0.466 0.568 0.466 0.596 0 0.037-0.838 1.174-1.863 2.553-1.034 1.379-1.928 2.608-2.003 2.748-0.326 0.634 0.028 1.565 0.689 1.817 0.112 0.047 0.373 0.075 0.578 0.075 0.671 0 0.755-0.075 2.832-2.841l1.891-2.534 0.615 0.41c2.608 1.696 5.934 2.534 9.009 2.282 2.506-0.205 4.882-0.997 6.819-2.264l0.652-0.438 1.761 2.357c1.863 2.478 2.096 2.767 2.404 2.925 0.261 0.14 0.96 0.14 1.211 0 0.261-0.13 0.568-0.466 0.661-0.717 0.121-0.298 0.093-0.82-0.037-1.081-0.065-0.13-0.941-1.332-1.947-2.674-1.015-1.351-1.863-2.487-1.891-2.543-0.037-0.056 0.065-0.224 0.279-0.466 1.612-1.789 2.832-4.211 3.354-6.642 0.484-2.31 0.41-4.854-0.214-7.071-1.453-5.18-5.627-9.158-10.816-10.322-1.23-0.279-3.074-0.438-4.22-0.354zM15.111 5.506c0.242 0.093 0.578 0.401 0.717 0.661 0.084 0.158 0.102 0.95 0.102 4.546v4.341l-0.158 0.261c-0.252 0.41-4.015 5.403-4.239 5.627-0.606 0.596-1.658 0.382-2.012-0.41-0.168-0.363-0.177-0.699-0.028-1.006 0.065-0.13 0.969-1.369 2.003-2.748l1.882-2.515 0.019-4.015 0.019-4.006 0.224-0.279c0.391-0.475 0.941-0.652 1.472-0.457z"></path>
</symbol>
<symbol id="icon-devHawks3" viewBox="0 0 32 32">
<path d="M15.773 14.033c-1.189-1.013-2.379-2.024-3.57-3.035 0.523 1.295 1.046 2.589 1.57 3.884 0.59 0.501 1.179 1.002 1.769 1.503 0.675-0.274 1.35-0.549 2.024-0.823-0.568-0.484-1.225-1.045-1.793-1.529z"></path>
<path d="M18.501 13.257c0.485-1.482 0.966-2.965 1.444-4.45-0.963 0.984-1.927 1.967-2.89 2.95-0.261 0.805-0.522 1.609-0.784 2.414 0.501 0.434 1.001 0.868 1.502 1.301 0.244-0.738 0.486-1.477 0.728-2.216z"></path>
<path d="M13.021 17.463c0.81-0.324 1.62-0.648 2.43-0.972-0.243 0.737-0.487 1.473-0.73 2.21-0.567-0.413-1.133-0.825-1.7-1.238z"></path>
<path d="M17.377 16.886c0.136-0.419 0.273-0.839 0.409-1.258 0.268 0 0.536 0.001 0.805 0.001h0.276c0.309 0.266 0.618 0.533 0.927 0.799-0.338-0.036-0.676-0.072-1.014-0.108-0.468 0.188-0.935 0.377-1.403 0.565z"></path>
<path d="M15.71 20.425c-0.452-0.057-1.058-0.18-1.732-0.458s-1.191-0.618-1.551-0.896c-0.391 0.353-0.782 0.707-1.172 1.060 0.438 0.369 1.11 0.853 2.022 1.234 0.915 0.382 1.735 0.519 2.307 0.57 0.042-0.503 0.084-1.006 0.127-1.509z"></path>
<path d="M9.95 14.669c-0.521 0.028-1.042 0.056-1.563 0.084 0.062 0.579 0.211 1.383 0.584 2.28 0.375 0.901 0.845 1.576 1.213 2.029 0.419-0.317 0.837-0.635 1.256-0.952-0.291-0.336-0.653-0.827-0.954-1.481-0.356-0.774-0.486-1.476-0.536-1.96z"></path>
<path d="M11.292 9.917c-0.376-0.376-0.753-0.751-1.129-1.126-0.371 0.457-0.845 1.14-1.22 2.054-0.365 0.889-0.51 1.688-0.57 2.264 0.527 0.008 1.055 0.015 1.582 0.023 0.046-0.432 0.157-1.034 0.435-1.704s0.627-1.174 0.901-1.512z"></path>
<path d="M15.657 7.409c-0.032-0.524-0.065-1.048-0.097-1.572-0.568 0.060-1.365 0.206-2.253 0.579s-1.55 0.839-1.992 1.203c0.37 0.377 0.741 0.754 1.111 1.132 0.356-0.279 0.873-0.623 1.551-0.901 0.652-0.268 1.24-0.386 1.679-0.44z"></path>
<path d="M24.572 13.171c-0.264-2.876-2.024-4.696-2.329-5.002-1.953-1.959-4.272-2.273-4.925-2.339-0.002 0.528-0.005 1.057-0.007 1.585 0.342 0.058 0.761 0.154 1.225 0.316 0.59 0.206 1.014 0.436 1.167 0.522 0.358 0.201 1.014 0.578 1.66 1.297 0.119 0.133 0.402 0.46 0.687 0.936 0.092 0.154 0.458 0.779 0.707 1.713 0.092 0.345 0.322 1.232 0.242 2.308-0.165 2.226-1.541 3.709-1.768 3.947-1.559 1.632-3.458 1.905-3.975 1.962-0.004 0.508-0.007 1.015-0.011 1.523 0.67-0.044 1.797-0.206 3.025-0.839 0.354-0.182 1.454-0.783 2.464-2.006 0.853-1.031 1.284-2.071 1.507-2.796 0.2-0.65 0.455-1.767 0.33-3.129z"></path>
<path d="M9.596 25.268v-1.734h0.36c0.259 0 0.448 0.021 0.565 0.063 0.168 0.059 0.3 0.161 0.394 0.307s0.142 0.319 0.142 0.52c0 0.174-0.038 0.327-0.113 0.459s-0.172 0.229-0.292 0.292c-0.12 0.063-0.288 0.094-0.504 0.094h-0.552zM9.762 25.104h0.2c0.24 0 0.406-0.015 0.499-0.045 0.13-0.042 0.233-0.119 0.308-0.229s0.112-0.245 0.112-0.405c0-0.167-0.040-0.31-0.121-0.429s-0.194-0.2-0.338-0.244c-0.108-0.033-0.287-0.049-0.536-0.049h-0.123v1.4z"></path>
<path d="M11.394 23.534h0.994v0.17h-0.82v0.544h0.813v0.17h-0.813v0.681h0.813v0.17h-0.987v-1.734z"></path>
<path d="M15.366 23.534h0.173v0.727h0.883v-0.727h0.173v1.734h-0.173v-0.837h-0.883v0.837h-0.173v-1.734z"></path>
<path d="M17.726 23.534l0.809 1.734h-0.187l-0.273-0.571h-0.747l-0.27 0.571h-0.193l0.819-1.734h0.042zM17.704 23.902l-0.297 0.628h0.593l-0.296-0.628z"></path>
<path d="M18.705 23.534h0.178l0.354 1.25 0.497-1.25h0.036l0.491 1.25 0.36-1.25h0.177l-0.498 1.734h-0.032l-0.515-1.312-0.525 1.312h-0.032l-0.492-1.734z"></path>
<path d="M21.121 23.534h0.177v0.651l0.693-0.651h0.233l-0.833 0.778 0.898 0.956h-0.231l-0.76-0.808v0.808h-0.177v-1.734z"></path>
<path d="M22.368 24.945l0.147-0.088c0.104 0.191 0.224 0.286 0.36 0.286 0.058 0 0.113-0.014 0.164-0.041s0.090-0.064 0.117-0.109c0.027-0.046 0.040-0.094 0.040-0.145 0-0.058-0.020-0.115-0.059-0.171-0.054-0.077-0.153-0.17-0.297-0.278s-0.235-0.188-0.27-0.237c-0.061-0.082-0.092-0.17-0.092-0.265 0-0.076 0.018-0.144 0.054-0.206s0.087-0.111 0.153-0.147c0.066-0.036 0.137-0.054 0.214-0.054 0.082 0 0.158 0.020 0.229 0.061s0.146 0.115 0.226 0.223l-0.141 0.107c-0.065-0.086-0.121-0.143-0.167-0.171s-0.096-0.041-0.15-0.041c-0.070 0-0.127 0.021-0.172 0.064s-0.067 0.095-0.067 0.157c0 0.038 0.008 0.074 0.024 0.11s0.044 0.074 0.086 0.116c0.023 0.022 0.097 0.080 0.224 0.173 0.15 0.111 0.253 0.209 0.309 0.296s0.084 0.173 0.084 0.26c0 0.126-0.048 0.235-0.143 0.328s-0.212 0.139-0.348 0.139c-0.105 0-0.201-0.028-0.286-0.084s-0.165-0.15-0.237-0.282z"></path>
<path d="M12.637 23.529h0.188l0.572 1.333 0.581-1.333h0.188l-0.751 1.725h-0.038l-0.74-1.725z"></path>
<path d="M9.757 26.75l-0.147-0.736h0.065c0.057 0.294 0.109 0.563 0.118 0.651h0.001c0.010-0.088 0.096-0.47 0.132-0.651h0.063c0.036 0.177 0.121 0.568 0.13 0.648h0.002c0.015-0.12 0.094-0.471 0.128-0.648h0.063l-0.16 0.736h-0.070c-0.034-0.173-0.113-0.544-0.126-0.643h-0.001c-0.015 0.109-0.093 0.468-0.131 0.643h-0.068z"></path>
<path d="M10.398 26.486c0 0.121 0.022 0.22 0.115 0.22s0.106-0.091 0.109-0.107h0.061c-0.001 0.013-0.018 0.161-0.17 0.161s-0.176-0.146-0.176-0.281c0-0.172 0.056-0.282 0.181-0.282 0.138 0 0.17 0.118 0.17 0.252 0 0.007-0 0.023-0.001 0.038h-0.288zM10.625 26.435c0-0.109-0.025-0.184-0.109-0.184-0.11 0-0.115 0.148-0.117 0.184h0.226z"></path>
<path d="M10.793 25.979h0.061v0.306c0.017-0.044 0.055-0.088 0.133-0.088 0.101 0 0.159 0.083 0.159 0.268 0 0.167-0.046 0.294-0.174 0.294-0.069 0-0.103-0.035-0.12-0.077 0 0.020-0.001 0.045-0.003 0.068h-0.057c0.001-0.026 0.001-0.077 0.001-0.148v-0.623zM11.084 26.466c0-0.148-0.038-0.214-0.109-0.214-0.093 0-0.123 0.086-0.123 0.226 0 0.132 0.023 0.225 0.114 0.225 0.077 0 0.118-0.076 0.118-0.238z"></path>
<path d="M11.528 26.499l-0.060 0.251h-0.062s0.18-0.736 0.18-0.736h0.081l0.187 0.736h-0.067l-0.061-0.251h-0.199zM11.713 26.443c-0.048-0.196-0.078-0.315-0.087-0.369h-0.002c-0.010 0.063-0.043 0.203-0.082 0.369h0.172z"></path>
<path d="M12.001 26.689v0.262h-0.061v-0.586c0-0.075 0-0.126-0.001-0.16h0.059c0.001 0.009 0.003 0.049 0.003 0.078 0.020-0.052 0.060-0.087 0.133-0.087 0.104 0 0.159 0.093 0.159 0.274s-0.067 0.289-0.175 0.289c-0.069 0-0.101-0.034-0.117-0.071zM12.23 26.474c0-0.14-0.033-0.221-0.112-0.221-0.092 0-0.12 0.088-0.12 0.225s0.015 0.227 0.113 0.227c0.078 0 0.118-0.092 0.118-0.231z"></path>
<path d="M12.462 26.689v0.262h-0.061v-0.586c0-0.075 0-0.126-0.001-0.16h0.059c0.001 0.009 0.003 0.049 0.003 0.078 0.020-0.052 0.060-0.087 0.133-0.087 0.104 0 0.159 0.093 0.159 0.274s-0.067 0.289-0.175 0.289c-0.069 0-0.101-0.034-0.117-0.071zM12.691 26.474c0-0.14-0.033-0.221-0.112-0.221-0.092 0-0.12 0.088-0.12 0.225s0.015 0.227 0.113 0.227c0.078 0 0.118-0.092 0.118-0.231z"></path>
<path d="M12.862 26.75v-0.771h0.061v0.771h-0.061z"></path>
<path d="M13.059 26.206h0.061v0.544h-0.061v-0.544zM13.059 25.979h0.061v0.108h-0.061v-0.108z"></path>
<path d="M13.57 26.591c-0.002 0.023-0.015 0.169-0.166 0.169-0.137 0-0.176-0.126-0.176-0.283s0.051-0.28 0.183-0.28c0.15 0 0.158 0.143 0.159 0.166h-0.063c-0.001-0.023-0.010-0.112-0.096-0.112s-0.12 0.095-0.12 0.226c0 0.142 0.034 0.23 0.115 0.23 0.086 0 0.098-0.087 0.102-0.115h0.062z"></path>
<path d="M13.971 26.663c0 0.037 0.003 0.073 0.004 0.088h-0.056c-0.003-0.013-0.005-0.044-0.005-0.066-0.020 0.048-0.063 0.076-0.131 0.076-0.105 0-0.141-0.081-0.141-0.156 0-0.095 0.064-0.172 0.208-0.172 0.028 0 0.044 0 0.061 0.002v-0.077c0-0.047-0.010-0.107-0.091-0.107-0.090 0-0.095 0.066-0.098 0.103h-0.060c0.002-0.077 0.039-0.155 0.16-0.155 0.102 0 0.148 0.051 0.148 0.15v0.316zM13.913 26.485c-0.014-0.002-0.030-0.003-0.059-0.003-0.106 0-0.151 0.051-0.151 0.118 0 0.057 0.030 0.106 0.093 0.106 0.085 0 0.117-0.059 0.117-0.187v-0.034z"></path>
<path d="M14.037 26.206h0.079v-0.148h0.060v0.148h0.099v0.054h-0.099v0.38c0 0.040 0.009 0.065 0.051 0.065 0.013 0 0.031-0.001 0.041-0.003v0.048c-0.017 0.006-0.042 0.008-0.060 0.008-0.055 0-0.092-0.024-0.092-0.105v-0.393h-0.079v-0.054z"></path>
<path d="M14.356 26.206h0.061v0.544h-0.061v-0.544zM14.357 25.979h0.061v0.108h-0.061v-0.108z"></path>
<path d="M14.887 26.471c0 0.189-0.061 0.289-0.18 0.289s-0.181-0.097-0.181-0.288 0.071-0.276 0.184-0.276 0.178 0.091 0.178 0.274zM14.588 26.473c0 0.16 0.044 0.233 0.118 0.233s0.118-0.075 0.118-0.234c0-0.146-0.040-0.22-0.118-0.22-0.073 0-0.118 0.063-0.118 0.222z"></path>
<path d="M14.995 26.374c0-0.111-0.001-0.144-0.001-0.168h0.059c0.001 0.013 0.003 0.034 0.003 0.077 0.019-0.047 0.058-0.086 0.132-0.086s0.14 0.041 0.14 0.166v0.388h-0.062v-0.377c0-0.071-0.026-0.121-0.092-0.121-0.083 0-0.118 0.056-0.118 0.179v0.319h-0.062v-0.376z"></path>
<path d="M15.483 26.596c0.004 0.066 0.040 0.111 0.106 0.111s0.098-0.041 0.098-0.097c0-0.063-0.033-0.091-0.107-0.12-0.106-0.042-0.14-0.080-0.14-0.155s0.044-0.139 0.148-0.139c0.113 0 0.148 0.077 0.149 0.149h-0.061c-0.002-0.028-0.009-0.097-0.091-0.097-0.058 0-0.084 0.036-0.084 0.084s0.019 0.071 0.098 0.102c0.101 0.040 0.149 0.076 0.149 0.172s-0.060 0.154-0.164 0.154-0.16-0.064-0.164-0.164h0.061z"></path>
<path d="M16.067 26.75v-0.491h-0.074v-0.054h0.074v-0.083c0-0.076 0.024-0.149 0.12-0.149 0.013 0 0.032 0.002 0.042 0.006v0.056c-0.010-0.002-0.023-0.005-0.038-0.005-0.046 0-0.063 0.029-0.063 0.091v0.084h0.089v0.054h-0.089v0.491h-0.061z"></path>
<path d="M16.612 26.471c0 0.189-0.061 0.289-0.18 0.289s-0.181-0.097-0.181-0.288 0.071-0.276 0.184-0.276 0.178 0.091 0.178 0.274zM16.313 26.473c0 0.16 0.044 0.233 0.118 0.233s0.118-0.075 0.118-0.234c0-0.146-0.040-0.22-0.118-0.22-0.073 0-0.118 0.063-0.118 0.222z"></path>
<path d="M16.72 26.392c0-0.086 0-0.147-0.001-0.186h0.059c0.001 0.016 0.002 0.042 0.002 0.1 0.024-0.067 0.078-0.107 0.144-0.108v0.066c-0.095 0.005-0.144 0.076-0.144 0.175v0.311h-0.061v-0.359z"></path>
<path d="M17.219 26.014h0.18c0.104 0 0.17 0.064 0.17 0.176 0 0.101-0.049 0.143-0.092 0.158 0.057 0.019 0.117 0.072 0.117 0.187 0 0.13-0.076 0.215-0.202 0.215h-0.173v-0.736zM17.372 26.326c0.096 0 0.135-0.045 0.135-0.13 0-0.077-0.041-0.128-0.122-0.128h-0.104v0.258h0.092zM17.28 26.697h0.106c0.094 0 0.144-0.059 0.144-0.161 0-0.107-0.057-0.157-0.16-0.157h-0.090v0.318z"></path>
<path d="M18.018 26.605c0 0.064 0 0.119 0.001 0.145h-0.058c-0.002-0.016-0.003-0.036-0.004-0.077-0.018 0.055-0.066 0.087-0.132 0.087-0.058 0-0.136-0.021-0.136-0.162v-0.392h0.062v0.377c0 0.076 0.022 0.123 0.091 0.123 0.065 0 0.115-0.041 0.115-0.171v-0.329h0.062v0.4z"></path>
<path d="M18.171 26.596c0.004 0.066 0.040 0.111 0.106 0.111s0.098-0.041 0.098-0.097c0-0.063-0.033-0.091-0.107-0.12-0.106-0.042-0.14-0.080-0.14-0.155s0.044-0.139 0.148-0.139c0.113 0 0.148 0.077 0.149 0.149h-0.061c-0.002-0.028-0.009-0.097-0.091-0.097-0.058 0-0.084 0.036-0.084 0.084s0.019 0.071 0.098 0.102c0.101 0.040 0.149 0.076 0.149 0.172s-0.060 0.154-0.164 0.154-0.16-0.064-0.164-0.164h0.061z"></path>
<path d="M18.536 26.206h0.061v0.544h-0.061v-0.544zM18.536 25.979h0.061v0.108h-0.061v-0.108z"></path>
<path d="M18.733 26.374c0-0.111-0.001-0.144-0.001-0.168h0.059c0.001 0.013 0.003 0.034 0.003 0.077 0.019-0.047 0.058-0.086 0.132-0.086s0.14 0.041 0.14 0.166v0.388h-0.062v-0.377c0-0.071-0.026-0.121-0.092-0.121-0.083 0-0.118 0.056-0.118 0.179v0.319h-0.062v-0.376z"></path>
<path d="M19.235 26.486c0 0.121 0.022 0.22 0.115 0.22s0.106-0.091 0.109-0.107h0.061c-0.001 0.013-0.018 0.161-0.17 0.161s-0.176-0.146-0.176-0.281c0-0.172 0.056-0.282 0.181-0.282 0.138 0 0.17 0.118 0.17 0.252 0 0.007-0 0.023-0.001 0.038h-0.288zM19.463 26.435c0-0.109-0.025-0.184-0.109-0.184-0.11 0-0.115 0.148-0.117 0.184h0.226z"></path>
<path d="M19.657 26.596c0.004 0.066 0.040 0.111 0.106 0.111s0.098-0.041 0.098-0.097c0-0.063-0.033-0.091-0.107-0.12-0.106-0.042-0.14-0.080-0.14-0.155s0.044-0.139 0.148-0.139c0.113 0 0.148 0.077 0.149 0.149h-0.061c-0.002-0.028-0.009-0.097-0.091-0.097-0.058 0-0.084 0.036-0.084 0.084s0.019 0.071 0.098 0.102c0.101 0.040 0.149 0.076 0.149 0.172s-0.060 0.154-0.164 0.154-0.16-0.064-0.164-0.164h0.061z"></path>
<path d="M20.052 26.596c0.004 0.066 0.040 0.111 0.106 0.111s0.098-0.041 0.098-0.097c0-0.063-0.033-0.091-0.107-0.12-0.106-0.042-0.14-0.080-0.14-0.155s0.044-0.139 0.148-0.139c0.113 0 0.148 0.077 0.149 0.149h-0.061c-0.002-0.028-0.009-0.097-0.091-0.097-0.058 0-0.084 0.036-0.084 0.084s0.019 0.071 0.098 0.102c0.101 0.040 0.149 0.076 0.149 0.172s-0.060 0.154-0.164 0.154-0.16-0.064-0.164-0.164h0.061z"></path>
<path d="M20.929 26.663c0 0.037 0.003 0.073 0.004 0.088h-0.056c-0.003-0.013-0.005-0.044-0.005-0.066-0.020 0.048-0.063 0.076-0.131 0.076-0.105 0-0.141-0.081-0.141-0.156 0-0.095 0.064-0.172 0.208-0.172 0.028 0 0.044 0 0.061 0.002v-0.077c0-0.047-0.010-0.107-0.091-0.107-0.090 0-0.095 0.066-0.098 0.103h-0.060c0.002-0.077 0.039-0.155 0.16-0.155 0.102 0 0.148 0.051 0.148 0.15v0.316zM20.871 26.485c-0.014-0.002-0.030-0.003-0.059-0.003-0.106 0-0.151 0.051-0.151 0.118 0 0.057 0.030 0.106 0.093 0.106 0.085 0 0.117-0.059 0.117-0.187v-0.034z"></path>
<path d="M21.066 26.374c0-0.111-0.001-0.144-0.001-0.168h0.059c0.001 0.013 0.003 0.034 0.003 0.077 0.019-0.047 0.058-0.086 0.132-0.086s0.14 0.041 0.14 0.166v0.388h-0.062v-0.377c0-0.071-0.026-0.121-0.092-0.121-0.083 0-0.118 0.056-0.118 0.179v0.319h-0.062v-0.376z"></path>
<path d="M21.859 25.979v0.636c0 0.048 0 0.103 0.001 0.136h-0.059c-0.001-0.014-0.003-0.053-0.003-0.079-0.017 0.051-0.052 0.089-0.131 0.089-0.113 0-0.162-0.094-0.162-0.288 0-0.176 0.068-0.275 0.177-0.275 0.075 0 0.102 0.033 0.115 0.062v-0.28h0.061zM21.569 26.472c0 0.169 0.040 0.232 0.112 0.232 0.092 0 0.118-0.080 0.118-0.234 0-0.171-0.027-0.217-0.111-0.217-0.070 0-0.119 0.064-0.119 0.22z"></path>
<path d="M22.212 26.014h0.062v0.68h0.267l-0.011 0.056h-0.318v-0.736z"></path>
<path d="M22.624 26.206h0.061v0.544h-0.061v-0.544zM22.624 25.979h0.061v0.108h-0.061v-0.108z"></path>
<path d="M22.835 26.75v-0.491h-0.074v-0.054h0.074v-0.083c0-0.076 0.024-0.149 0.12-0.149 0.013 0 0.032 0.002 0.042 0.006v0.056c-0.010-0.002-0.023-0.005-0.038-0.005-0.046 0-0.063 0.029-0.063 0.091v0.084h0.089v0.054h-0.089v0.491h-0.061z"></path>
<path d="M23.080 26.486c0 0.121 0.022 0.22 0.115 0.22s0.106-0.091 0.109-0.107h0.061c-0.001 0.013-0.018 0.161-0.17 0.161s-0.176-0.146-0.176-0.281c0-0.172 0.056-0.282 0.181-0.282 0.138 0 0.17 0.118 0.17 0.252 0 0.007-0 0.023-0.001 0.038h-0.288zM23.307 26.435c0-0.109-0.025-0.184-0.109-0.184-0.11 0-0.115 0.148-0.117 0.184h0.226z"></path>
</symbol>
<symbol id="icon-devHawks4" viewBox="0 0 42 32">
<path d="M8.507 15.363c-0.731-0.623-1.462-1.244-2.194-1.865 0.322 0.796 0.643 1.591 0.965 2.387 0.362 0.308 0.725 0.616 1.087 0.924 0.415-0.169 0.83-0.337 1.244-0.506-0.349-0.298-0.753-0.642-1.102-0.94z"></path>
<path d="M10.184 14.885c0.298-0.911 0.594-1.823 0.887-2.735-0.592 0.604-1.184 1.209-1.776 1.814-0.16 0.495-0.321 0.989-0.482 1.484 0.308 0.267 0.616 0.533 0.923 0.8 0.15-0.454 0.299-0.908 0.447-1.362z"></path>
<path d="M6.815 17.471c0.498-0.199 0.996-0.398 1.494-0.597-0.15 0.453-0.299 0.906-0.449 1.358-0.348-0.254-0.696-0.507-1.045-0.761z"></path>
<path d="M9.493 17.116c0.084-0.258 0.168-0.516 0.252-0.773 0.165 0 0.33 0 0.495 0.001h0.17c0.19 0.164 0.38 0.328 0.57 0.491-0.208-0.022-0.416-0.044-0.623-0.066-0.288 0.116-0.575 0.232-0.862 0.347z"></path>
<path d="M8.468 19.292c-0.278-0.035-0.651-0.111-1.064-0.282s-0.732-0.38-0.954-0.551c-0.24 0.217-0.48 0.434-0.721 0.652 0.269 0.227 0.682 0.525 1.243 0.758 0.563 0.235 1.067 0.319 1.418 0.35 0.026-0.309 0.052-0.618 0.078-0.928z"></path>
<path d="M4.928 15.754c-0.32 0.017-0.64 0.035-0.961 0.052 0.038 0.356 0.129 0.85 0.359 1.401 0.231 0.554 0.519 0.969 0.746 1.247 0.257-0.195 0.515-0.39 0.772-0.585-0.179-0.207-0.402-0.509-0.586-0.91-0.219-0.476-0.299-0.907-0.33-1.205z"></path>
<path d="M5.753 12.832c-0.231-0.231-0.463-0.462-0.694-0.692-0.228 0.281-0.519 0.701-0.75 1.263-0.224 0.547-0.313 1.037-0.35 1.392 0.324 0.005 0.648 0.009 0.972 0.014 0.028-0.266 0.096-0.636 0.268-1.047s0.385-0.721 0.554-0.929z"></path>
<path d="M8.436 11.291c-0.020-0.322-0.040-0.644-0.060-0.966-0.349 0.037-0.839 0.127-1.385 0.356s-0.953 0.516-1.224 0.74c0.228 0.232 0.455 0.464 0.683 0.696 0.219-0.171 0.537-0.383 0.954-0.554 0.401-0.164 0.762-0.237 1.032-0.271z"></path>
<path d="M13.916 14.832c-0.162-1.768-1.244-2.887-1.432-3.074-1.2-1.204-2.626-1.397-3.028-1.438-0.001 0.325-0.003 0.65-0.004 0.975 0.21 0.036 0.468 0.095 0.753 0.194 0.363 0.127 0.623 0.268 0.717 0.321 0.22 0.124 0.624 0.355 1.020 0.797 0.073 0.081 0.247 0.283 0.422 0.576 0.057 0.094 0.281 0.479 0.435 1.053 0.057 0.212 0.198 0.757 0.149 1.419-0.101 1.368-0.947 2.28-1.087 2.426-0.958 1.003-2.126 1.171-2.444 1.206-0.002 0.312-0.004 0.624-0.007 0.936 0.412-0.027 1.105-0.127 1.86-0.515 0.217-0.112 0.894-0.481 1.515-1.233 0.524-0.634 0.789-1.273 0.926-1.719 0.123-0.4 0.28-1.086 0.203-1.923z"></path>
<path d="M15.812 15.398v-2.728h0.566c0.408 0 0.704 0.033 0.888 0.098 0.264 0.093 0.471 0.253 0.62 0.482s0.224 0.501 0.224 0.818c0 0.273-0.059 0.514-0.177 0.721s-0.271 0.361-0.46 0.46-0.453 0.148-0.793 0.148h-0.868zM16.073 15.14h0.315c0.377 0 0.639-0.024 0.784-0.070 0.205-0.067 0.367-0.187 0.484-0.36s0.176-0.386 0.176-0.636c0-0.263-0.064-0.488-0.191-0.674s-0.305-0.314-0.532-0.384c-0.171-0.052-0.452-0.078-0.844-0.078h-0.193v2.203z"></path>
<path d="M18.64 12.67h1.563v0.267h-1.291v0.855h1.28v0.267h-1.28v1.072h1.28v0.267h-1.552v-2.728z"></path>
<path d="M24.888 12.67h0.273v1.144h1.389v-1.144h0.273v2.728h-0.273v-1.317h-1.389v1.317h-0.273v-2.728z"></path>
<path d="M28.6 12.67l1.272 2.728h-0.294l-0.429-0.898h-1.175l-0.425 0.898h-0.304l1.289-2.728h0.067zM28.566 13.25l-0.467 0.987h0.933l-0.465-0.987z"></path>
<path d="M30.141 12.67h0.28l0.557 1.966 0.782-1.966h0.057l0.773 1.966 0.567-1.966h0.278l-0.784 2.728h-0.051l-0.809-2.064-0.825 2.064h-0.051l-0.773-2.728z"></path>
<path d="M33.941 12.67h0.278v1.024l1.090-1.024h0.366l-1.31 1.224 1.412 1.504h-0.363l-1.196-1.271v1.271h-0.278v-2.728z"></path>
<path d="M35.903 14.89l0.232-0.139c0.163 0.3 0.352 0.451 0.566 0.451 0.092 0 0.177-0.021 0.258-0.064s0.142-0.1 0.184-0.172c0.042-0.072 0.063-0.148 0.063-0.228 0-0.092-0.031-0.181-0.093-0.269-0.085-0.121-0.241-0.267-0.467-0.438-0.228-0.172-0.369-0.296-0.425-0.373-0.096-0.129-0.145-0.268-0.145-0.417 0-0.119 0.028-0.227 0.085-0.324s0.137-0.175 0.24-0.231c0.103-0.056 0.215-0.084 0.337-0.084 0.129 0 0.249 0.032 0.361 0.096s0.23 0.181 0.355 0.351l-0.223 0.169c-0.103-0.136-0.19-0.226-0.262-0.269s-0.151-0.065-0.236-0.065c-0.11 0-0.2 0.033-0.27 0.1s-0.105 0.149-0.105 0.247c0 0.059 0.012 0.117 0.037 0.172s0.070 0.116 0.135 0.182c0.036 0.035 0.153 0.125 0.352 0.273 0.236 0.174 0.398 0.329 0.486 0.465s0.132 0.273 0.132 0.41c0 0.198-0.075 0.37-0.225 0.516s-0.333 0.219-0.548 0.219c-0.166 0-0.316-0.044-0.451-0.133s-0.259-0.236-0.373-0.444z"></path>
<path d="M20.595 12.663h0.295l0.9 2.097 0.914-2.097h0.295l-1.181 2.714h-0.059l-1.164-2.714z"></path>
<path d="M16.044 17.623l-0.232-1.164h0.103c0.090 0.465 0.172 0.89 0.186 1.028h0.002c0.016-0.139 0.151-0.743 0.209-1.028h0.099c0.057 0.279 0.191 0.898 0.205 1.025h0.003c0.024-0.19 0.149-0.744 0.203-1.025h0.099l-0.253 1.164h-0.11c-0.054-0.273-0.178-0.861-0.199-1.016h-0.002c-0.024 0.173-0.148 0.74-0.206 1.016h-0.107z"></path>
<path d="M17.056 17.205c0 0.191 0.035 0.348 0.181 0.348s0.168-0.144 0.173-0.169h0.096c-0.002 0.020-0.028 0.255-0.269 0.255s-0.278-0.231-0.278-0.444c0-0.272 0.089-0.446 0.286-0.446 0.217 0 0.268 0.186 0.268 0.397 0 0.011-0 0.036-0.002 0.059h-0.455zM17.416 17.125c0-0.172-0.040-0.292-0.173-0.292-0.174 0-0.182 0.234-0.185 0.292h0.358z"></path>
<path d="M17.681 16.404h0.096v0.483c0.026-0.070 0.088-0.139 0.211-0.139 0.16 0 0.251 0.131 0.251 0.423 0 0.264-0.073 0.465-0.274 0.465-0.109 0-0.164-0.055-0.19-0.122 0 0.032-0.002 0.071-0.005 0.108h-0.090c0.002-0.041 0.002-0.121 0.002-0.234v-0.985zM18.14 17.173c0-0.234-0.060-0.338-0.172-0.338-0.147 0-0.195 0.136-0.195 0.358 0 0.208 0.036 0.356 0.181 0.356 0.123 0 0.186-0.12 0.186-0.376z"></path>
<path d="M18.843 17.225l-0.094 0.397h-0.098s0.285-1.164 0.285-1.164h0.127l0.296 1.164h-0.105l-0.096-0.397h-0.315zM19.136 17.137c-0.076-0.309-0.123-0.498-0.138-0.584h-0.004c-0.016 0.099-0.068 0.321-0.13 0.584h0.272z"></path>
<path d="M19.59 17.526v0.415h-0.096v-0.927c0-0.118 0-0.199-0.002-0.252h0.093c0.002 0.015 0.004 0.077 0.004 0.124 0.032-0.082 0.096-0.138 0.21-0.138 0.164 0 0.251 0.148 0.251 0.433s-0.106 0.457-0.276 0.457c-0.109 0-0.16-0.054-0.185-0.112zM19.952 17.186c0-0.22-0.053-0.35-0.176-0.35-0.146 0-0.189 0.14-0.189 0.356s0.023 0.36 0.179 0.36c0.123 0 0.186-0.146 0.186-0.365z"></path>
<path d="M20.319 17.526v0.415h-0.096v-0.927c0-0.118 0-0.199-0.002-0.252h0.093c0.002 0.015 0.004 0.077 0.004 0.124 0.032-0.082 0.096-0.138 0.21-0.138 0.164 0 0.251 0.148 0.251 0.433s-0.106 0.457-0.276 0.457c-0.109 0-0.16-0.054-0.185-0.112zM20.68 17.186c0-0.22-0.053-0.35-0.176-0.35-0.146 0-0.189 0.14-0.189 0.356s0.023 0.36 0.179 0.36c0.123 0 0.186-0.146 0.186-0.365z"></path>
<path d="M20.952 17.623v-1.219h0.096v1.219h-0.096z"></path>
<path d="M21.263 16.762h0.096v0.861h-0.096v-0.861zM21.263 16.404h0.096v0.171h-0.096v-0.171z"></path>
<path d="M22.070 17.371c-0.003 0.037-0.023 0.267-0.262 0.267-0.217 0-0.277-0.199-0.277-0.447s0.080-0.443 0.289-0.443c0.238 0 0.25 0.226 0.251 0.262h-0.099c-0.002-0.036-0.016-0.177-0.152-0.177s-0.19 0.15-0.19 0.357c0 0.225 0.054 0.363 0.182 0.363 0.136 0 0.154-0.138 0.161-0.182h0.097z"></path>
<path d="M22.704 17.484c0 0.058 0.005 0.116 0.007 0.139h-0.088c-0.005-0.020-0.008-0.069-0.008-0.104-0.031 0.076-0.099 0.12-0.207 0.12-0.165 0-0.223-0.128-0.223-0.246 0-0.151 0.101-0.273 0.329-0.273 0.045 0 0.070 0 0.097 0.003v-0.123c0-0.074-0.015-0.169-0.143-0.169-0.143 0-0.15 0.104-0.155 0.162h-0.094c0.003-0.122 0.062-0.245 0.252-0.245 0.16 0 0.234 0.080 0.234 0.237v0.499zM22.613 17.204c-0.022-0.003-0.048-0.005-0.093-0.005-0.168 0-0.239 0.081-0.239 0.187 0 0.090 0.048 0.168 0.147 0.168 0.135 0 0.185-0.094 0.185-0.296v-0.054z"></path>
<path d="M22.809 16.762h0.125v-0.235h0.095v0.235h0.156v0.085h-0.156v0.6c0 0.063 0.014 0.103 0.080 0.103 0.020 0 0.049-0.001 0.065-0.005v0.076c-0.026 0.010-0.066 0.013-0.094 0.013-0.087 0-0.146-0.037-0.146-0.166v-0.622h-0.125v-0.085z"></path>
<path d="M23.314 16.762h0.096v0.861h-0.096v-0.861zM23.314 16.404h0.096v0.171h-0.096v-0.171z"></path>
<path d="M24.153 17.181c0 0.299-0.097 0.457-0.285 0.457s-0.287-0.153-0.287-0.455 0.112-0.436 0.29-0.436 0.282 0.144 0.282 0.433zM23.68 17.184c0 0.253 0.069 0.368 0.187 0.368s0.186-0.118 0.186-0.37c0-0.232-0.063-0.348-0.186-0.348-0.116 0-0.187 0.099-0.187 0.351z"></path>
<path d="M24.323 17.028c0-0.176-0.001-0.228-0.002-0.266h0.093c0.002 0.021 0.004 0.054 0.004 0.122 0.030-0.075 0.092-0.136 0.209-0.136s0.222 0.064 0.222 0.262v0.613h-0.097v-0.596c0-0.112-0.041-0.191-0.145-0.191-0.132 0-0.186 0.089-0.186 0.283v0.504h-0.097v-0.595z"></path>
<path d="M25.094 17.379c0.007 0.105 0.063 0.176 0.168 0.176s0.155-0.065 0.155-0.153c0-0.1-0.053-0.144-0.17-0.19-0.168-0.066-0.221-0.127-0.221-0.245s0.070-0.22 0.234-0.22c0.179 0 0.234 0.121 0.236 0.236h-0.096c-0.003-0.045-0.015-0.153-0.144-0.153-0.092 0-0.133 0.057-0.133 0.133s0.030 0.111 0.155 0.161c0.16 0.063 0.236 0.121 0.236 0.271s-0.095 0.243-0.259 0.243-0.253-0.101-0.259-0.259h0.097z"></path>
<path d="M26.018 17.623v-0.776h-0.117v-0.085h0.117v-0.132c0-0.121 0.039-0.235 0.19-0.235 0.021 0 0.050 0.004 0.066 0.009v0.088c-0.015-0.003-0.036-0.008-0.060-0.008-0.072 0-0.099 0.047-0.099 0.144v0.133h0.14v0.085h-0.14v0.776h-0.096z"></path>
<path d="M26.879 17.181c0 0.299-0.097 0.457-0.285 0.457s-0.287-0.153-0.287-0.455 0.112-0.436 0.29-0.436 0.282 0.144 0.282 0.433zM26.407 17.184c0 0.253 0.069 0.368 0.187 0.368s0.186-0.118 0.186-0.37c0-0.232-0.063-0.348-0.186-0.348-0.116 0-0.187 0.099-0.187 0.351z"></path>
<path d="M27.049 17.056c0-0.136 0-0.232-0.002-0.294h0.093c0.002 0.025 0.004 0.067 0.004 0.158 0.038-0.106 0.124-0.169 0.228-0.171v0.105c-0.151 0.008-0.227 0.12-0.227 0.277v0.492h-0.096v-0.567z"></path>
<path d="M27.838 16.459h0.284c0.164 0 0.269 0.101 0.269 0.279 0 0.16-0.077 0.226-0.146 0.25 0.090 0.030 0.186 0.113 0.186 0.295 0 0.205-0.12 0.34-0.32 0.34h-0.273v-1.164zM28.081 16.952c0.152 0 0.213-0.071 0.213-0.205 0-0.122-0.064-0.203-0.193-0.203h-0.165v0.408h0.146zM27.936 17.539h0.168c0.149 0 0.228-0.094 0.228-0.254 0-0.169-0.090-0.248-0.253-0.248h-0.143v0.503z"></path>
<path d="M29.101 17.393c0 0.102 0 0.189 0.002 0.229h-0.092c-0.004-0.024-0.005-0.057-0.006-0.123-0.028 0.088-0.104 0.138-0.209 0.138-0.092 0-0.215-0.034-0.215-0.257v-0.619h0.097v0.596c0 0.12 0.036 0.194 0.144 0.194 0.102 0 0.181-0.065 0.181-0.27v-0.52h0.097v0.632z"></path>
<path d="M29.344 17.379c0.007 0.105 0.063 0.176 0.168 0.176s0.155-0.065 0.155-0.153c0-0.1-0.053-0.144-0.17-0.19-0.168-0.066-0.221-0.127-0.221-0.245s0.070-0.22 0.234-0.22c0.179 0 0.234 0.121 0.236 0.236h-0.096c-0.003-0.045-0.015-0.153-0.144-0.153-0.092 0-0.133 0.057-0.133 0.133s0.030 0.111 0.155 0.161c0.16 0.063 0.236 0.121 0.236 0.271s-0.095 0.243-0.259 0.243-0.253-0.101-0.259-0.259h0.097z"></path>
<path d="M29.921 16.762h0.096v0.861h-0.096v-0.861zM29.921 16.404h0.096v0.171h-0.096v-0.171z"></path>
<path d="M30.232 17.028c0-0.176-0.001-0.228-0.002-0.266h0.093c0.002 0.021 0.004 0.054 0.004 0.122 0.030-0.075 0.092-0.136 0.209-0.136s0.222 0.064 0.222 0.262v0.613h-0.097v-0.596c0-0.112-0.041-0.191-0.145-0.191-0.132 0-0.186 0.089-0.186 0.283v0.504h-0.097v-0.595z"></path>
<path d="M31.026 17.205c0 0.191 0.035 0.348 0.181 0.348s0.168-0.144 0.173-0.169h0.096c-0.002 0.020-0.028 0.255-0.269 0.255s-0.278-0.231-0.278-0.444c0-0.272 0.089-0.446 0.286-0.446 0.217 0 0.268 0.186 0.268 0.397 0 0.011-0 0.036-0.002 0.059h-0.455zM31.386 17.125c0-0.172-0.040-0.292-0.173-0.292-0.174 0-0.182 0.234-0.185 0.292h0.358z"></path>
<path d="M31.692 17.379c0.007 0.105 0.063 0.176 0.168 0.176s0.155-0.065 0.155-0.153c0-0.1-0.053-0.144-0.17-0.19-0.168-0.066-0.221-0.127-0.221-0.245s0.070-0.22 0.234-0.22c0.179 0 0.234 0.121 0.236 0.236h-0.096c-0.003-0.045-0.015-0.153-0.144-0.153-0.092 0-0.133 0.057-0.133 0.133s0.030 0.111 0.155 0.161c0.16 0.063 0.236 0.121 0.236 0.271s-0.095 0.243-0.259 0.243-0.253-0.101-0.259-0.259h0.097z"></path>
<path d="M32.316 17.379c0.007 0.105 0.063 0.176 0.168 0.176s0.155-0.065 0.155-0.153c0-0.1-0.053-0.144-0.17-0.19-0.168-0.066-0.221-0.127-0.221-0.245s0.070-0.22 0.234-0.22c0.179 0 0.234 0.121 0.236 0.236h-0.096c-0.003-0.045-0.015-0.153-0.144-0.153-0.092 0-0.133 0.057-0.133 0.133s0.030 0.111 0.155 0.161c0.16 0.063 0.236 0.121 0.236 0.271s-0.095 0.243-0.259 0.243-0.253-0.101-0.259-0.259h0.097z"></path>
<path d="M33.704 17.484c0 0.058 0.005 0.116 0.007 0.139h-0.088c-0.005-0.020-0.008-0.069-0.008-0.104-0.031 0.076-0.099 0.12-0.207 0.12-0.165 0-0.223-0.128-0.223-0.246 0-0.151 0.101-0.273 0.329-0.273 0.045 0 0.070 0 0.097 0.003v-0.123c0-0.074-0.015-0.169-0.143-0.169-0.143 0-0.15 0.104-0.155 0.162h-0.094c0.003-0.122 0.062-0.245 0.252-0.245 0.16 0 0.234 0.080 0.234 0.237v0.499zM33.612 17.204c-0.022-0.003-0.048-0.005-0.093-0.005-0.168 0-0.239 0.081-0.239 0.187 0 0.090 0.048 0.168 0.147 0.168 0.135 0 0.185-0.094 0.185-0.296v-0.054z"></path>
<path d="M33.92 17.028c0-0.176-0.001-0.228-0.002-0.266h0.093c0.002 0.021 0.004 0.054 0.004 0.122 0.030-0.075 0.092-0.136 0.209-0.136s0.222 0.064 0.222 0.262v0.613h-0.097v-0.596c0-0.112-0.041-0.191-0.145-0.191-0.132 0-0.186 0.089-0.186 0.283v0.504h-0.097v-0.595z"></path>
<path d="M35.174 16.404v1.005c0 0.076 0 0.163 0.002 0.214h-0.093c-0.002-0.022-0.004-0.084-0.004-0.125-0.027 0.080-0.083 0.14-0.207 0.14-0.178 0-0.256-0.148-0.256-0.456 0-0.279 0.107-0.435 0.28-0.435 0.118 0 0.162 0.053 0.182 0.098v-0.442h0.096zM34.716 17.183c0 0.267 0.064 0.366 0.178 0.366 0.145 0 0.186-0.127 0.186-0.37 0-0.271-0.042-0.344-0.176-0.344-0.11 0-0.188 0.101-0.188 0.348z"></path>
<path d="M35.732 16.459h0.098v1.075h0.422l-0.018 0.088h-0.502v-1.164z"></path>
<path d="M36.382 16.762h0.096v0.861h-0.096v-0.861zM36.383 16.404h0.096v0.171h-0.096v-0.171z"></path>
<path d="M36.716 17.623v-0.776h-0.117v-0.085h0.117v-0.132c0-0.121 0.039-0.235 0.19-0.235 0.021 0 0.050 0.004 0.066 0.009v0.088c-0.015-0.003-0.036-0.008-0.061-0.008-0.072 0-0.099 0.047-0.099 0.144v0.133h0.14v0.085h-0.14v0.776h-0.096z"></path>
<path d="M37.103 17.205c0 0.191 0.035 0.348 0.181 0.348s0.168-0.144 0.173-0.169h0.096c-0.002 0.020-0.028 0.255-0.269 0.255s-0.278-0.231-0.278-0.444c0-0.272 0.089-0.446 0.286-0.446 0.217 0 0.268 0.186 0.268 0.397 0 0.011-0 0.036-0.002 0.059h-0.455zM37.463 17.125c0-0.172-0.040-0.292-0.173-0.292-0.174 0-0.182 0.234-0.185 0.292h0.358z"></path>
</symbol>
<symbol id="icon-people" viewBox="0 0 46 32">
<path d="M7.248 0.12c-2.080 0.512-3.856 2.32-4.352 4.4-0.168 0.728-0.168 2.192 0 2.92 0.496 2.080 2.312 3.912 4.352 4.392 0.424 0.104 0.488 0.144 0.312 0.176-1.712 0.392-2.24 0.568-3.104 1.048-2 1.144-3.464 2.968-4.16 5.216l-0.24 0.784-0.032 3.8-0.024 3.8h11.44l0.064-0.776c0.16-2.008 0.8-3.84 1.928-5.504 0.576-0.856 1.76-2.088 2.568-2.68 0.368-0.28 0.68-0.504 0.696-0.52 0.064-0.040-0.472-0.992-0.856-1.544-0.776-1.104-1.616-1.864-2.816-2.552-0.68-0.4-1.904-0.864-2.528-0.952-0.76-0.128-0.792-0.16-0.224-0.296 2.048-0.472 3.864-2.312 4.36-4.44 0.208-0.872 0.136-2.536-0.128-3.328-0.608-1.768-2.064-3.224-3.832-3.832-0.76-0.256-2.608-0.32-3.424-0.112z"></path>
<path d="M35.248 0.12c-1.224 0.304-2.528 1.176-3.28 2.168-0.848 1.136-1.208 2.232-1.208 3.688 0 1.464 0.36 2.56 1.208 3.696 0.76 1 2.096 1.896 3.28 2.16 0.568 0.136 0.528 0.168-0.224 0.296-0.632 0.088-1.848 0.552-2.536 0.952-1.2 0.688-2.032 1.448-2.816 2.552-0.384 0.552-0.912 1.504-0.856 1.544 0.024 0.016 0.328 0.24 0.696 0.52 0.808 0.592 1.992 1.824 2.568 2.68 1.128 1.664 1.768 3.496 1.928 5.504l0.064 0.776h11.448l-0.064-7.6-0.24-0.784c-0.696-2.248-2.16-4.072-4.16-5.216-0.864-0.48-1.384-0.656-3.104-1.048-0.176-0.032-0.112-0.072 0.312-0.176 2.072-0.48 3.872-2.312 4.368-4.44 0.2-0.872 0.128-2.536-0.136-3.328-0.6-1.768-2.064-3.224-3.832-3.832-0.752-0.256-2.6-0.32-3.416-0.112z"></path>
<path d="M21.472 6.080c-0.784 0.168-1.896 0.696-2.552 1.232-1.32 1.064-2.208 2.944-2.208 4.672s0.888 3.608 2.208 4.672c0.616 0.496 1.752 1.056 2.448 1.208l0.528 0.112-0.656 0.112c-3.072 0.52-5.664 2.728-6.704 5.704-0.416 1.208-0.488 1.936-0.488 5.192v3.016h17.416v-3.016c0-3.256-0.064-3.984-0.488-5.192-1.040-2.976-3.632-5.184-6.696-5.704l-0.664-0.112 0.528-0.112c0.704-0.152 1.832-0.712 2.456-1.208 1.312-1.064 2.2-2.944 2.2-4.672 0-1.256-0.48-2.664-1.28-3.712-1.352-1.784-3.784-2.664-6.048-2.192z"></path>
</symbol>
<symbol id="icon-satisfection" viewBox="0 0 32 32">
<path d="M26.28 0.784c-1.576 0.424-2.944 0.824-3.024 0.888-0.296 0.208-0.408 0.424-0.408 0.784s0.104 0.576 0.416 0.8c0.32 0.24 0.584 0.208 2.52-0.312 1-0.272 1.816-0.488 1.832-0.48 0.032 0.024-0.68 1.136-1.184 1.848-3.952 5.536-10.328 10.2-17 12.44-2.712 0.912-5.088 1.352-7.824 1.464-0.792 0.040-1.024 0.072-1.176 0.16-0.28 0.176-0.432 0.472-0.432 0.84 0 0.416 0.168 0.688 0.536 0.856 0.272 0.112 0.368 0.12 1.208 0.088 4.376-0.208 8.36-1.256 12.6-3.32 3.808-1.864 7.080-4.208 10.128-7.256 1.8-1.808 3.328-3.664 4.352-5.304 0.216-0.368 0.4-0.648 0.408-0.64 0.016 0.008 0.216 0.76 0.464 1.672 0.24 0.904 0.488 1.728 0.544 1.832 0.064 0.104 0.232 0.256 0.384 0.328 0.456 0.24 0.848 0.168 1.184-0.192 0.32-0.336 0.288-0.536-0.584-3.792-0.48-1.768-0.848-3.032-0.92-3.136-0.176-0.248-0.432-0.36-0.816-0.352-0.208 0-1.4 0.296-3.208 0.784z"></path>
<path d="M24.848 10.8c-0.096 0.064-0.232 0.208-0.312 0.328l-0.128 0.208-0.032 18.784h-1.816v-6.304c0-6.064 0-6.296-0.12-6.472-0.056-0.096-0.2-0.232-0.288-0.296-0.168-0.112-0.336-0.12-2.392-0.12-2.080 0-2.232 0.008-2.408 0.12-0.112 0.072-0.256 0.224-0.32 0.336-0.128 0.2-0.128 0.328-0.144 6.464l-0.024 6.272h-1.8v-4.584c0-4.376-0.008-4.576-0.12-4.752-0.064-0.096-0.2-0.232-0.296-0.296-0.168-0.112-0.328-0.12-2.392-0.12-2.080 0-2.224 0.008-2.408 0.12-0.104 0.072-0.248 0.216-0.32 0.328-0.12 0.2-0.12 0.336-0.144 4.752l-0.016 4.552h-1.808v-3.456c0-3.272-0.008-3.456-0.12-3.632-0.064-0.096-0.2-0.232-0.296-0.296-0.168-0.112-0.328-0.12-2.4-0.12-2.064 0-2.232 0.008-2.4 0.12-0.088 0.064-0.232 0.2-0.288 0.296-0.112 0.176-0.12 0.36-0.12 3.632v3.456h-0.672c-0.552 0-0.704 0.016-0.856 0.12-0.288 0.192-0.408 0.432-0.408 0.816 0 0.392 0.12 0.624 0.408 0.824 0.176 0.112 0.6 0.12 15.592 0.12s15.416-0.008 15.592-0.12c0.288-0.2 0.408-0.432 0.408-0.824 0-0.384-0.12-0.624-0.408-0.816-0.152-0.104-0.304-0.12-0.856-0.12h-0.672v-9.424c0-9.12-0.008-9.432-0.12-9.6-0.064-0.096-0.2-0.232-0.296-0.296-0.168-0.112-0.328-0.12-2.4-0.12-2.080 0-2.232 0.008-2.4 0.12z"></path>
</symbol>
<symbol id="icon-structure" viewBox="0 0 32 32">
<path d="M11.12 3.51v3.513h9.757v-7.024h-9.757v3.51z"></path>
<path d="M15.504 9.26l-0.222 0.222v1.637h-5.32c-5.842 0-5.489-0.025-5.703 0.391-0.144 0.28-0.144 5.248 0 5.528 0.219 0.422 0.785 0.494 1.152 0.155l0.18-0.18v-4.462h9.691v9.691h-3.069l-0.189 0.189c-0.155 0.164-0.189 0.247-0.189 0.508 0 0.272 0.033 0.35 0.203 0.513l0.194 0.189 3.050 0.039v3.189c0 3.399 0.008 3.466 0.319 3.635 0.086 0.039 1.543 0.064 4.235 0.064h4.11l0.189-0.189c0.155-0.161 0.189-0.247 0.189-0.508 0-0.272-0.033-0.35-0.203-0.513l-0.194-0.189-3.61-0.019-3.602-0.011v-5.464l7.212-0.033 0.194-0.189c0.169-0.164 0.203-0.241 0.203-0.513 0-0.261-0.033-0.344-0.189-0.508l-0.189-0.189h-7.232v-5.528h3.544c3.799 0 3.824 0 4.002-0.319 0.083-0.161 0.083-0.63 0-0.794-0.178-0.319-0.203-0.319-4.002-0.319h-3.544v-5.8l-0.222-0.222c-0.18-0.183-0.272-0.222-0.494-0.222s-0.311 0.039-0.494 0.222z"></path>
<path d="M26.405 15.998v2.081h5.595v-4.163h-5.595v2.081z"></path>
<path d="M0 22.925v3.48h9.754v-6.96h-9.754v3.48z"></path>
<path d="M26.405 22.925v2.115h5.595v-4.226h-5.595v2.112z"></path>
<path d="M26.405 29.885v2.115h5.595v-4.229h-5.595v2.115z"></path>
</symbol>
<symbol id="icon-update" viewBox="0 0 32 32">
<path d="M8.035 1.968c-0.755 0.2-1.593 0.855-1.98 1.548-0.34 0.597-0.457 1.065-0.457 1.815 0 1.037 0.247 1.635 0.963 2.35 0.99 0.99 2.25 1.277 3.563 0.815 1.095-0.387 1.957-1.33 2.22-2.438 0.117-0.51 0.082-1.3-0.092-1.853-0.322-1.048-1.295-1.962-2.385-2.243-0.422-0.113-1.408-0.107-1.83 0.005z"></path>
<path d="M18.177 4.388c-2.242 1.495-2.273 1.522-2.172 1.915 0.040 0.152 0.345 0.37 2.172 1.595 2.31 1.54 2.367 1.565 2.655 1.27 0.135-0.127 0.148-0.188 0.148-0.65v-0.51l0.358 0.043c0.198 0.023 0.58 0.105 0.85 0.188 1.98 0.575 3.55 2.080 4.205 4.030 0.188 0.57 0.188 0.71 0 1.168-0.267 0.662-0.188 1.043 0.258 1.13 0.51 0.105 0.92-0.96 1.045-2.7 0.122-1.875-0.622-3.885-1.983-5.332-1.082-1.168-2.788-2.015-4.348-2.175l-0.385-0.040v-0.54c0-0.485-0.012-0.55-0.135-0.663-0.305-0.285-0.387-0.245-2.668 1.273z"></path>
<path d="M5.365 8.665c-1.125 0.387-1.6 0.71-2.035 1.377-0.38 0.59-0.455 0.943-0.455 2.15 0 1.137 0.040 1.317 0.362 1.617 0.34 0.322 0.14 0.31 5.778 0.31h5.203l0.258-0.135c0.152-0.075 0.335-0.235 0.44-0.38l0.175-0.258 0.018-0.992c0.012-0.58-0.005-1.125-0.045-1.305-0.16-0.768-0.71-1.553-1.36-1.935-0.357-0.205-1.735-0.69-1.822-0.637-0.043 0.023-0.175 0.123-0.305 0.223-0.803 0.645-2.015 0.977-3.053 0.85-0.815-0.1-1.505-0.383-2.168-0.885-0.165-0.13-0.313-0.227-0.322-0.223-0.013 0-0.31 0.105-0.668 0.223z"></path>
<path d="M5.035 15.498c-0.18 0.1-0.433 0.72-0.615 1.522-0.135 0.585-0.152 2.075-0.027 2.695 0.615 3.1 3.133 5.555 6.053 5.907l0.572 0.065v0.508c0 0.635 0.107 0.815 0.47 0.815 0.205 0 0.485-0.17 2.332-1.4 2.242-1.495 2.273-1.523 2.172-1.915-0.040-0.152-0.345-0.37-2.172-1.595-2.31-1.54-2.367-1.565-2.655-1.27-0.135 0.128-0.148 0.188-0.148 0.65v0.51l-0.357-0.043c-0.197-0.023-0.58-0.105-0.848-0.188-1.982-0.573-3.553-2.080-4.207-4.030-0.188-0.57-0.188-0.71-0.008-1.168 0.188-0.45 0.205-0.825 0.053-0.982-0.15-0.152-0.428-0.188-0.615-0.082z"></path>
<path d="M22.128 15.973c-2.407 0.585-3.37 3.802-1.67 5.617 0.668 0.71 1.395 1.067 2.28 1.125 1.030 0.065 1.945-0.288 2.7-1.038 0.692-0.677 0.99-1.383 0.99-2.325 0-0.645-0.080-1.008-0.358-1.582-0.427-0.895-1.365-1.628-2.325-1.828-0.422-0.088-1.195-0.070-1.617 0.030z"></path>
<path d="M19.188 22.758c-0.815 0.285-1.313 0.602-1.66 1.055-0.532 0.703-0.65 1.13-0.65 2.438 0 0.89 0.012 0.99 0.135 1.23 0.070 0.14 0.227 0.34 0.352 0.433l0.227 0.183h10.805l0.21-0.14c0.113-0.078 0.27-0.235 0.348-0.348 0.133-0.198 0.14-0.258 0.157-1.282 0.023-1.212-0.035-1.57-0.352-2.12-0.227-0.4-0.68-0.863-1.065-1.085-0.27-0.157-1.552-0.62-1.718-0.62-0.047 0-0.218 0.105-0.387 0.227-0.38 0.288-1.065 0.615-1.565 0.75-0.25 0.065-0.602 0.1-1.025 0.1-0.977 0-1.705-0.235-2.53-0.82-0.2-0.142-0.41-0.258-0.47-0.253-0.058 0-0.42 0.11-0.813 0.253z"></path>
</symbol>
<symbol id="icon-webEarth" viewBox="0 0 32 32">
<path d="M14.155 0.067c-3.043 0.376-5.744 1.501-8.187 3.419-0.576 0.456-2.037 1.92-2.507 2.515-1.725 2.187-2.888 4.829-3.32 7.56-0.163 1.027-0.163 3.851 0 4.877 0.515 3.243 1.995 6.237 4.251 8.6 2.464 2.573 5.445 4.163 9.008 4.787 1.029 0.181 4.437 0.243 4.805 0.088 0.907-0.376 1.28-1.432 0.819-2.283-0.363-0.68-0.864-0.88-2.157-0.88h-0.856l-0.288-0.488c-0.843-1.443-1.763-3.805-2.149-5.557l-0.061-0.261 1.48-0.019c1.376-0.019 1.493-0.032 1.725-0.157 1.157-0.624 1.213-2.224 0.107-2.875l-0.293-0.173-3.563-0.064-0.045-0.405c-0.093-0.989-0.123-3.451-0.056-4.563 0.045-0.637 0.088-1.208 0.107-1.269 0.032-0.099 0.232-0.107 3.027-0.107h2.987l0.043 0.293c0.019 0.171 0.075 1.008 0.112 1.869 0.083 1.525 0.083 1.568 0.251 1.856 0.651 1.101 2.256 1.045 2.875-0.112 0.12-0.219 0.139-0.349 0.139-1.093 0-0.464-0.027-1.288-0.051-1.832l-0.051-0.981h6.051l0.075 0.325c0.264 1.213 0.283 1.376 0.283 3.181l0.005 1.787 0.187 0.307c0.333 0.525 1.037 0.851 1.637 0.739 0.632-0.112 1.125-0.539 1.307-1.12 0.157-0.493 0.195-2.888 0.064-3.963-0.344-2.811-1.395-5.419-3.12-7.725-0.661-0.893-2.256-2.485-3.136-3.141-2.296-1.701-4.915-2.763-7.656-3.107-0.845-0.101-3.083-0.12-3.845-0.027zM16.456 4.155c0.656 1.219 1.211 2.595 1.629 4.056 0.152 0.52 0.293 1.037 0.32 1.144l0.043 0.205h-2.443c-2.344 0-2.445-0.005-2.445-0.117 0-0.195 0.483-1.832 0.781-2.656 0.352-0.976 0.888-2.157 1.296-2.869 0.261-0.456 0.331-0.539 0.392-0.469 0.045 0.045 0.237 0.363 0.427 0.707zM21.531 4.531c2.149 1.043 3.981 2.669 5.243 4.669l0.232 0.36h-5.195l-0.032-0.141c-0.405-1.827-0.792-3.107-1.341-4.451-0.208-0.52-0.395-0.976-0.419-1.019-0.051-0.12 0.555 0.117 1.512 0.581zM11.917 4.011c-0.019 0.045-0.139 0.32-0.261 0.613-0.381 0.893-0.933 2.595-1.227 3.795l-0.275 1.141h-5.163l0.232-0.36c1.4-2.213 3.549-4.021 5.995-5.027 0.605-0.251 0.749-0.28 0.699-0.163zM9.643 13.512c-0.032 0.387-0.051 1.507-0.051 2.488 0 0.979 0.019 2.099 0.051 2.48l0.043 0.707h-6.043l-0.139-0.645c-0.187-0.931-0.256-1.587-0.256-2.541 0-0.957 0.069-1.613 0.256-2.552l0.139-0.637h6.043l-0.043 0.701zM10.28 22.979c0.251 1.213 0.875 3.2 1.405 4.477 0.133 0.312 0.219 0.581 0.195 0.592-0.080 0.032-1.149-0.424-1.805-0.768-1.944-1.032-3.688-2.637-4.851-4.488l-0.232-0.355h5.176l0.112 0.541z"></path>
<path d="M20.429 20.429c-0.437 0.432-0.512 0.213 1.869 5.451 1.888 4.144 2.139 4.661 2.325 4.787 0.243 0.171 0.555 0.181 0.856 0.045 0.195-0.093 0.288-0.256 0.987-1.645 0.445-0.885 0.845-1.605 0.944-1.707 0.101-0.085 0.856-0.499 1.688-0.912 1.363-0.68 1.52-0.773 1.613-0.968 0.136-0.301 0.125-0.613-0.037-0.856-0.133-0.187-0.651-0.437-4.795-2.325-5.237-2.381-5.019-2.307-5.451-1.869z"></path>
</symbol>

<symbol id="icon-One" viewBox="0 0 32 32">
<path  d="M32 16c0 8.837-7.163 16-16 16s-16-7.163-16-16c0-8.837 7.163-16 16-16s16 7.163 16 16z"></path>
<path d="M12.8 12.456v-2.856h6.976v12.8h-3.352v-9.944h-3.624z"></path>
</symbol>

<symbol id="icon-Two" viewBox="0 0 32 32">
<path d="M32 16c0 8.837-7.163 16-16 16s-16-7.163-16-16c0-8.837 7.163-16 16-16s16 7.163 16 16z"></path>
<path d="M17.456 18.6l-4.080 1.912-0.12-0.632h9.376v2.52h-13.4v-2.52c1.504-0.688 2.864-1.272 4.072-1.76s2.232-0.92 3.064-1.304c0.84-0.408 1.48-0.808 1.912-1.208 0.456-0.424 0.68-0.88 0.68-1.384 0-0.4-0.112-0.744-0.352-1.032-0.232-0.304-0.6-0.536-1.104-0.704s-1.16-0.248-1.96-0.248c-1.056 0-1.912 0.208-2.568 0.624-0.632 0.4-0.968 0.96-1.008 1.664h-3.168c-0.048-0.976 0.184-1.832 0.704-2.568 0.536-0.736 1.32-1.32 2.344-1.736s2.224-0.624 3.616-0.624c1.024 0 1.952 0.096 2.792 0.296 0.84 0.184 1.56 0.464 2.168 0.832 0.616 0.368 1.088 0.816 1.408 1.336 0.336 0.52 0.496 1.104 0.496 1.76 0 0.496-0.088 0.96-0.272 1.376-0.184 0.408-0.48 0.792-0.88 1.16-0.384 0.368-0.888 0.736-1.512 1.104-0.616 0.352-1.352 0.736-2.208 1.136z"></path>
</symbol>

<symbol id="icon-Three" viewBox="0 0 32 32">
<path d="M32 16c0 8.837-7.163 16-16 16s-16-7.163-16-16c0-8.837 7.163-16 16-16s16 7.163 16 16z"></path>
<path d="M16.080 15.784v-0.088c0.744 0.024 1.432 0.088 2.048 0.184 0.632 0.088 1.176 0.248 1.632 0.48 0.456 0.216 0.816 0.512 1.064 0.912 0.256 0.392 0.384 0.888 0.384 1.496 0 0.712-0.232 1.336-0.688 1.88-0.44 0.544-1.072 0.968-1.896 1.272-0.824 0.32-1.792 0.48-2.904 0.48-1.088 0-2.048-0.176-2.872-0.52-0.808-0.328-1.432-0.792-1.856-1.384-0.432-0.584-0.632-1.256-0.592-2.032h2.392c0.016 0.368 0.136 0.688 0.36 0.952 0.24 0.28 0.576 0.496 1.008 0.648 0.448 0.152 0.96 0.224 1.56 0.224 0.92 0 1.632-0.16 2.128-0.472 0.488-0.32 0.736-0.784 0.736-1.408 0-0.592-0.28-1.016-0.856-1.256-0.568-0.248-1.368-0.376-2.408-0.376h-1.616v-1.904h1.616c0.72 0 1.304-0.040 1.744-0.128 0.456-0.104 0.784-0.264 0.992-0.48 0.216-0.224 0.32-0.52 0.32-0.888 0-0.52-0.208-0.928-0.624-1.216-0.416-0.304-1.096-0.456-2.032-0.456-0.888 0-1.568 0.16-2.056 0.472-0.464 0.32-0.712 0.736-0.736 1.256h-2.392c-0.040-0.592 0.064-1.128 0.32-1.592 0.264-0.472 0.64-0.872 1.12-1.2 0.496-0.344 1.056-0.6 1.688-0.776 0.648-0.176 1.336-0.264 2.056-0.264 1.088 0 2.024 0.136 2.808 0.416s1.384 0.672 1.808 1.176c0.416 0.504 0.624 1.096 0.624 1.768 0 0.552-0.12 1.016-0.36 1.384-0.24 0.352-0.584 0.64-1.024 0.856-0.448 0.2-0.968 0.344-1.56 0.432-0.584 0.088-1.224 0.144-1.936 0.152z"></path>
</symbol>

</defs>
</svg>
